<svg xmlns="http://www.w3.org/2000/svg" viewBox="0 0 180 180" fill="none" shape-rendering="auto"><desc>"Bottts" by "Pablo Stanley", licensed under "Free for personal and commercial use". / Remix of the original. - Created with dicebear.com</desc><metadata xmlns:dc="http://purl.org/dc/elements/1.1/" xmlns:cc="http://creativecommons.org/ns#" xmlns:rdf="http://www.w3.org/1999/02/22-rdf-syntax-ns#"><rdf:RDF><cc:Work><dc:title>Bottts</dc:title><dc:creator><cc:Agent rdf:about="https://twitter.com/pablostanley"><dc:title>Pablo Stanley</dc:title></cc:Agent></dc:creator><dc:source>https://bottts.com/</dc:source><cc:license rdf:resource="https://bottts.com/" /></cc:Work></rdf:RDF></metadata><mask id="viewboxMask"><rect width="180" height="180" rx="0" ry="0" x="0" y="0" fill="#fff" /></mask><g mask="url(#viewboxMask)"><g transform="translate(0 66)"><mask id="sidesAntenna02-a" style="mask-type:luminance" maskUnits="userSpaceOnUse" x="10" y="9" width="160" height="51"><g fill="#fff"><rect x="10" y="28" width="36" height="32" rx="4"/><path d="M160 9h2v20h-2z"/><rect x="134" y="28" width="36" height="32" rx="4"/></g></mask><g mask="url(#sidesAntenna02-a)"><path d="M0 0h180v76H0V0Z" fill="#f4511e"/><path d="M0 0h180v76H0V0Z" fill="#fff" fill-opacity=".3"/><path fill="#000" fill-opacity=".1" d="M0 38h180v38H0z"/></g><path fill="#fff" fill-opacity=".4" d="M160 8h2v20h-2z"/><circle cx="161" cy="5" r="4" fill="#E1E6E8"/><circle cx="162" cy="4" r="2" fill="#fff"/></g><g transform="translate(41)"><mask id="topRadar-a" style="mask-type:luminance" maskUnits="userSpaceOnUse" x="37" y="0" width="36" height="53"><g fill="#fff"><path fill-rule="evenodd" clip-rule="evenodd" d="M43.8.11A20 20 0 1 0 72.08 28.4"/><circle cx="67.13" cy="5.06" r="4" transform="rotate(45 67.13 5.06)"/><path transform="rotate(45 64.3 6.48)" d="M64.31 6.48h2v26h-2z"/><path d="M47.94 28.11h4v24h-4z"/></g></mask><g mask="url(#topRadar-a)"><path d="M0 0h100v52H0V0Z" fill="#90A4AE"/><path d="M0 0h100v52H0V0Z" fill="#fff" fill-opacity=".3"/><path fill-rule="evenodd" clip-rule="evenodd" d="M43.8.11A20 20 0 1 0 72.08 28.4" fill="#fff" fill-opacity=".2"/><circle cx="67.13" cy="7.41" r="5.66" transform="rotate(45 67.13 7.4)" fill="#fff" fill-opacity=".8"/></g></g><g transform="translate(25 44)"><mask id="faceRound01-a" style="mask-type:luminance" maskUnits="userSpaceOnUse" x="0" y="0" width="130" height="120"><path fill-rule="evenodd" clip-rule="evenodd" d="M66 0c58.35 0 64 40.69 64 78 0 33.31-25.47 42-64 42-37.46 0-66-8.69-66-42C0 40.69 7.65 0 66 0Z" fill="#fff"/></mask><g mask="url(#faceRound01-a)"><path d="M-4-2h138v124H-4V-2Z" fill="#f4511e"/><g transform="translate(-1 -1)"></g></g></g><g transform="translate(52 124)"><path d="M27.05 8.44a2 2 0 1 1 3.9-.88C31.72 10.96 34.4 13 38 13c3.6 0 6.28-2.04 7.05-5.44a2 2 0 1 1 3.9.88C47.75 13.7 43.43 17 38 17s-9.76-3.3-10.95-8.56Z" fill="#000" fill-opacity=".6"/></g><g transform="translate(38 76)"><rect x="7" y="16" width="91" height="16" rx="4" fill="#000" fill-opacity=".8"/><mask id="eyesRobocop-a" style="mask-type:luminance" maskUnits="userSpaceOnUse" x="7" y="16" width="91" height="16"><rect x="7" y="16" width="91" height="16" rx="4" fill="#fff"/></mask><g mask="url(#eyesRobocop-a)" fill-rule="evenodd" clip-rule="evenodd" fill="#fff" fill-opacity=".8"><path d="M76 7h18L82 37H64L76 7ZM52 7h9L49 37h-9L52 7Z"/></g></g></g></svg>