<svg xmlns="http://www.w3.org/2000/svg" viewBox="0 0 180 180" fill="none" shape-rendering="auto"><desc>"Bottts" by "Pablo Stanley", licensed under "Free for personal and commercial use". / Remix of the original. - Created with dicebear.com</desc><metadata xmlns:dc="http://purl.org/dc/elements/1.1/" xmlns:cc="http://creativecommons.org/ns#" xmlns:rdf="http://www.w3.org/1999/02/22-rdf-syntax-ns#"><rdf:RDF><cc:Work><dc:title>Bottts</dc:title><dc:creator><cc:Agent rdf:about="https://twitter.com/pablostanley"><dc:title>Pablo Stanley</dc:title></cc:Agent></dc:creator><dc:source>https://bottts.com/</dc:source><cc:license rdf:resource="https://bottts.com/" /></cc:Work></rdf:RDF></metadata><mask id="viewboxMask"><rect width="180" height="180" rx="0" ry="0" x="0" y="0" fill="#fff" /></mask><g mask="url(#viewboxMask)"><g transform="translate(0 66)"><g opacity=".9" stroke="#2A3544"><ellipse cx="32.5" cy="23" rx="16.5" ry="18" stroke-width="6"/><path d="M29.51 36.76c-7.4 4.29-17 1.55-21.42-6.1" stroke-width="4"/><ellipse cx="28.5" cy="52.5" rx="16.5" ry="14.5" stroke-width="4"/></g><g opacity=".9" stroke="#2A3544"><path d="M168.6 60.42c-4.27-7.41-13.95-9.84-21.6-5.42" stroke-width="4"/><ellipse cx="148.5" cy="22.5" rx="16.5" ry="15.5" stroke-width="6"/></g><mask id="sidesCables02-a" style="mask-type:luminance" maskUnits="userSpaceOnUse" x="21" y="0" width="138" height="72"><g fill="#fff"><rect x="21" y="27" width="16" height="22" rx="2"/><rect x="22" y="60" width="16" height="12" rx="2"/><rect x="143" y="42" width="16" height="22" rx="2"/><rect x="143" width="16" height="22" rx="2"/></g></mask><g mask="url(#sidesCables02-a)"><path d="M0 0h180v76H0V0Z" fill="#039be5"/><path d="M0 0h180v76H0V0Z" fill="#fff" fill-opacity=".3"/></g></g><g transform="translate(41)"><g filter="url(#topGlowingBulb01-a)"><path fill-rule="evenodd" clip-rule="evenodd" d="M32 24A16 16 0 0 1 48 8h4a16 16 0 0 1 16 16v8a8 8 0 0 1-8 8H40a8 8 0 0 1-8-8v-8Z" fill="#fff" fill-opacity=".3"/></g><path d="M49 11.5c4.93 0 9.37 2.13 12.44 5.52" stroke="#fff" stroke-width="2" stroke-linecap="round"/><path d="m49.83 29-9-9L38 22.83l10 10V40h4v-7.03l10.14-10.14L59.31 20l-9 9h-.48Z" fill="#fff" fill-opacity=".8"/><rect x="22" y="40" width="56" height="12" rx="1" fill="#48494B"/><defs><filter id="topGlowingBulb01-a" x="24" y="0" width="52" height="48" filterUnits="userSpaceOnUse" color-interpolation-filters="sRGB"><feFlood flood-opacity="0" result="BackgroundImageFix"/><feColorMatrix in="SourceAlpha" values="0 0 0 0 0 0 0 0 0 0 0 0 0 0 0 0 0 0 127 0" result="hardAlpha"/><feOffset/><feGaussianBlur stdDeviation="4"/><feColorMatrix values="0 0 0 0 1 0 0 0 0 1 0 0 0 0 1 0 0 0 0.5 0"/><feBlend in2="BackgroundImageFix" result="effect1_dropShadow_617_621"/><feBlend in="SourceGraphic" in2="effect1_dropShadow_617_621" result="shape"/><feColorMatrix in="SourceAlpha" values="0 0 0 0 0 0 0 0 0 0 0 0 0 0 0 0 0 0 127 0" result="hardAlpha"/><feOffset/><feGaussianBlur stdDeviation="2"/><feComposite in2="hardAlpha" operator="arithmetic" k2="-1" k3="1"/><feColorMatrix values="0 0 0 0 1 0 0 0 0 1 0 0 0 0 1 0 0 0 0.5 0"/><feBlend in2="shape" result="effect2_innerShadow_617_621"/></filter></defs></g><g transform="translate(25 44)"><mask id="faceRound01-a" style="mask-type:luminance" maskUnits="userSpaceOnUse" x="0" y="0" width="130" height="120"><path fill-rule="evenodd" clip-rule="evenodd" d="M66 0c58.35 0 64 40.69 64 78 0 33.31-25.47 42-64 42-37.46 0-66-8.69-66-42C0 40.69 7.65 0 66 0Z" fill="#fff"/></mask><g mask="url(#faceRound01-a)"><path d="M-4-2h138v124H-4V-2Z" fill="#039be5"/><g transform="translate(-1 -1)"><g fill-rule="evenodd" clip-rule="evenodd" fill="#000"><path d="M100 124.65c-3.19-17.34-9.55-2.58-24.85-5.63-6.76-1.35-1.3-7.25-6.34-9.8-4.26-2.17-10.06-.43-14.94-1.82-7.04-2.02-6.95-6.12-13.5-6.73-6.2-.58-12.7 1.33-18.97.61C9.6 99.93 14.44 82.06 5.58 78.9c-8.85-3.15-23.43 2.3-25.34 11.23-1.86 8.71 10.57 41.12 10.57 41.12h109.2" fill-opacity=".2"/><path d="M136 116.77c-51.24 0-56.58-25.8-81.8-37.61C29 67.34 6.9 97.9-1.56 68.2c-8.48-29.7-8.43 62.86-8.43 62.86h146v-14.3Z" fill-opacity=".1"/><path d="M141.57 3.18c-11.93-.98-5.03 10.8-9.74 10.8-6.97 0-2.1-7.97-10.58-7.78-2.22.06-4.95 1.94-5.11 4.5-.37 5.52 3.71 15.03-1.84 15.3-5.18.25-1.1-9.64-1.65-16.24-.3-3.77-4.18-6.75-6.97-6.75-7.57 0-1.68 15.7-7.13 15.7s-1.2-9.05-5.08-13.84C88.97-.7 74.17-3.44 84.72-6h57.15" fill-opacity=".4"/></g></g></g></g><g transform="translate(52 124)"><g fill="#000" fill-opacity=".6"><rect x="12" y="12" width="4" height="8" rx="2"/><rect x="36" y="12" width="4" height="8" rx="2"/><rect x="24" y="12" width="4" height="8" rx="2"/><rect x="48" y="12" width="4" height="8" rx="2"/><rect x="60" y="12" width="4" height="8" rx="2"/></g></g><g transform="translate(38 76)"><g fill="#fff"><circle cx="21" cy="30" r="15" fill-opacity=".1"/><circle cx="83" cy="30" r="15" fill-opacity=".1"/><circle cx="21" cy="30" r="12" fill-opacity=".1"/><circle cx="83" cy="30" r="12" fill-opacity=".1"/><circle cx="21" cy="30" r="6" fill-opacity=".8"/><circle cx="83" cy="30" r="6" fill-opacity=".8"/><circle cx="21" cy="30" r="3" fill-opacity=".8"/><circle cx="83" cy="30" r="3" fill-opacity=".8"/></g></g></g></svg>