<svg xmlns="http://www.w3.org/2000/svg" viewBox="0 0 180 180" fill="none" shape-rendering="auto"><desc>"Bottts" by "Pablo Stanley", licensed under "Free for personal and commercial use". / Remix of the original. - Created with dicebear.com</desc><metadata xmlns:dc="http://purl.org/dc/elements/1.1/" xmlns:cc="http://creativecommons.org/ns#" xmlns:rdf="http://www.w3.org/1999/02/22-rdf-syntax-ns#"><rdf:RDF><cc:Work><dc:title>Bottts</dc:title><dc:creator><cc:Agent rdf:about="https://twitter.com/pablostanley"><dc:title>Pablo Stanley</dc:title></cc:Agent></dc:creator><dc:source>https://bottts.com/</dc:source><cc:license rdf:resource="https://bottts.com/" /></cc:Work></rdf:RDF></metadata><mask id="viewboxMask"><rect width="180" height="180" rx="0" ry="0" x="0" y="0" fill="#fff" /></mask><g mask="url(#viewboxMask)"><g transform="translate(0 66)"><mask id="sidesSquareAssymetric-a" style="mask-type:luminance" maskUnits="userSpaceOnUse" x="10" y="8" width="165" height="60"><g fill="#fff"><rect x="10" y="31" width="36" height="30" rx="4"/><rect x="20" y="15" width="26" height="30" rx="4"/><rect x="139" y="23" width="36" height="30" rx="4"/><rect x="134" y="8" width="36" height="60" rx="4"/></g></mask><g mask="url(#sidesSquareAssymetric-a)"><path d="M0 0h180v76H0V0Z" fill="#7cb342"/><path d="M0 0h180v76H0V0Z" fill="#fff" fill-opacity=".3"/><path fill="#000" fill-opacity=".1" d="M0 47h180v29H0z"/><circle cx="161" cy="20" r="5" fill="#fff" fill-opacity=".6"/><circle cx="161" cy="36" r="5" fill="#fff" fill-opacity=".6"/></g></g><g transform="translate(41)"><mask id="topAntenna-a" style="mask-type:luminance" maskUnits="userSpaceOnUse" x="38" y="5" width="24" height="47"><path d="M38 38c0-1.1.9-2 2-2h20a2 2 0 0 1 2 2v14H38V38ZM48 5h4v31h-4z" fill="#fff"/></mask><g mask="url(#topAntenna-a)"><path d="M0 0h100v52H0V0Z" fill="#7cb342"/><path d="M0 3h100v52H0V3Z" fill="#fff" fill-opacity=".3"/><path fill="#fff" fill-opacity=".2" d="M38 36h24v16H38z"/></g><circle cx="50" cy="8" r="8" fill="#FFE65C"/><circle cx="53" cy="5" r="3" fill="#fff"/></g><g transform="translate(25 44)"><mask id="faceRound02-a" style="mask-type:luminance" maskUnits="userSpaceOnUse" x="0" y="0" width="130" height="120"><path fill-rule="evenodd" clip-rule="evenodd" d="M0 31v-1c.18-.48.4-1.5 1-3 .83-3.06 2.78-6.56 6-10C16.7 6.6 35.17 0 65 0s48.3 6.6 58 17c3.22 3.44 5.17 6.94 6 10 .6 1.5.82 2.52 1 3v40c0-.1-.03.5 0 1a53.93 53.93 0 0 1-1 6c-1.19 6-3.4 11.91-7 17-9.72 16.34-27.74 26-57 26s-47.28-9.66-57-26C4.4 88.91 2.2 83 1 77a53.95 53.95 0 0 1-1-6c.03-.45 0-1.32 0-1V31Z" fill="#fff"/></mask><g mask="url(#faceRound02-a)"><path d="M-4-2h138v124H-4V-2Z" fill="#7cb342"/><g transform="translate(-1 -1)"><path d="M29.47 34.03c-.1 0-.19-.06-.26-.12-.08-.07-.14-.12-.13.14.01.5.67-.05.4-.02ZM9.33 48.92s.2-.56.03-.74c-.17.17-.18.42-.03.74ZM7.5 52c.06 0 .57-.28.48-.43-.12-.18-.49.34-.49.42ZM22.9 59.14c-.13-.11-.53-.45-.28-.5.14-.03.5.36.32.54v-.01h-.01l-.03-.03ZM26.33 108.46c.13-.02.66-.36.34-.45-.21-.04-.6.5-.34.46ZM52.63 96.34c-.05.05-.2.09-.34.12-.15.04-.26.07-.16.1.19.06.84.16.5-.22ZM4.76 43.63ZM5.1 71.63l.06-.1c1.02 0-.68.19-.07.1ZM80.53 109.92c.09-.02.1-.02.1-.11-.07.01-.08.02-.1.1ZM29.17 117.78c.08-.02.09-.03.1-.11-.08.01-.09.02-.1.1ZM9.01 49.75c.08-.02.09-.03.1-.12-.08.02-.09.03-.1.12ZM65.84 48.74c.02.09.03.1.1.1 0-.08-.01-.09-.1-.1ZM107.28 76.91c-.08.02-.09.03-.1.12.08-.02.09-.03.1-.12Z" fill="#000" fill-opacity=".2"/></g></g></g><g transform="translate(52 124)"><rect x="4" y="5" width="68" height="22" rx="5" fill="#000" fill-opacity=".2"/><rect x="8" y="9" width="60" height="14" rx="2" fill="#000" fill-opacity=".6"/><path fill-rule="evenodd" clip-rule="evenodd" d="m20 17 6-8H14l6 8ZM32 17l6-8H26l6 8ZM44 17l6-8H38l6 8ZM56 17l6-8H50l6 8Z" fill="#E1E6E8"/></g><g transform="translate(38 76)"><rect y="11" width="104" height="34" rx="17" fill="#000" fill-opacity=".8"/><circle cx="29" cy="28" r="13" fill="#F1EEDA"/><circle cx="75" cy="28" r="13" fill="#F1EEDA"/><rect x="24" y="23" width="10" height="10" rx="2" fill="#000" fill-opacity=".8"/><rect x="70" y="23" width="10" height="10" rx="2" fill="#000" fill-opacity=".8"/></g></g></svg>