<svg xmlns="http://www.w3.org/2000/svg" viewBox="0 0 180 180" fill="none" shape-rendering="auto"><desc>"Bottts" by "Pablo Stanley", licensed under "Free for personal and commercial use". / Remix of the original. - Created with dicebear.com</desc><metadata xmlns:dc="http://purl.org/dc/elements/1.1/" xmlns:cc="http://creativecommons.org/ns#" xmlns:rdf="http://www.w3.org/1999/02/22-rdf-syntax-ns#"><rdf:RDF><cc:Work><dc:title>Bottts</dc:title><dc:creator><cc:Agent rdf:about="https://twitter.com/pablostanley"><dc:title>Pablo Stanley</dc:title></cc:Agent></dc:creator><dc:source>https://bottts.com/</dc:source><cc:license rdf:resource="https://bottts.com/" /></cc:Work></rdf:RDF></metadata><mask id="viewboxMask"><rect width="180" height="180" rx="0" ry="0" x="0" y="0" fill="#fff" /></mask><g mask="url(#viewboxMask)"><g transform="translate(0 66)"><mask id="sidesSquareAssymetric-a" style="mask-type:luminance" maskUnits="userSpaceOnUse" x="10" y="8" width="165" height="60"><g fill="#fff"><rect x="10" y="31" width="36" height="30" rx="4"/><rect x="20" y="15" width="26" height="30" rx="4"/><rect x="139" y="23" width="36" height="30" rx="4"/><rect x="134" y="8" width="36" height="60" rx="4"/></g></mask><g mask="url(#sidesSquareAssymetric-a)"><path d="M0 0h180v76H0V0Z" fill="#5e35b1"/><path d="M0 0h180v76H0V0Z" fill="#fff" fill-opacity=".3"/><path fill="#000" fill-opacity=".1" d="M0 47h180v29H0z"/><circle cx="161" cy="20" r="5" fill="#fff" fill-opacity=".6"/><circle cx="161" cy="36" r="5" fill="#fff" fill-opacity=".6"/></g></g><g transform="translate(41)"><mask id="topBulb01-a" style="mask-type:luminance" maskUnits="userSpaceOnUse" x="22" y="0" width="56" height="52"><g fill="#fff"><path fill-rule="evenodd" clip-rule="evenodd" d="M32 16A16 16 0 0 1 48 0h4a16 16 0 0 1 16 16v16a8 8 0 0 1-8 8H40a8 8 0 0 1-8-8V16Z"/><rect x="22" y="40" width="56" height="12" rx="1"/></g></mask><g mask="url(#topBulb01-a)"><path d="M0 0h100v52H0V0Z" fill="#5e35b1"/><path d="M0 0h100v52H0V0Z" fill="#fff" fill-opacity=".3"/><path fill="#fff" fill-opacity=".4" d="M20-3h60v43H20z"/><path d="M49 3.5c4.93 0 9.37 2.13 12.44 5.52" stroke="#fff" stroke-width="2" stroke-linecap="round"/><path d="m49.83 26-9-9L38 19.83l10 10V40h4V29.97l10.14-10.14L59.31 17l-9 9h-.48Z" fill="#fff" fill-opacity=".8"/></g></g><g transform="translate(25 44)"><mask id="faceSquare04-a" style="mask-type:luminance" maskUnits="userSpaceOnUse" x="0" y="0" width="130" height="120"><path fill-rule="evenodd" clip-rule="evenodd" d="M0 102V68.85a40 40 0 0 1 2.28-13.31L19.76 12A18 18 0 0 1 36.74 0h56.52a18 18 0 0 1 16.98 12l17.48 43.54A40 40 0 0 1 130 68.85V102a18 18 0 0 1-18 18H18a18 18 0 0 1-18-18Z" fill="#fff"/></mask><g mask="url(#faceSquare04-a)"><path d="M-2-2h134v124H-2V-2Z" fill="#5e35b1"/><g transform="translate(-1 -1)"><g fill-rule="evenodd" clip-rule="evenodd" fill="#000"><path d="M-9.12 122.1c4.36-30.7 13.06-4.57 33.99-9.98 9.24-2.39 1.77-12.82 8.67-17.35 5.82-3.82 13.76-.74 20.43-3.21 9.63-3.57 9.5-10.82 18.48-11.9 8.48-1.03 17.37 2.34 25.93 1.08 16.15-2.4 9.53-34.03 21.64-39.61 12.1-5.6 32.05 4.06 34.66 19.87 2.54 15.42-14.46 72.78-14.46 72.78H-9.12" fill-opacity=".2"/><path d="M35.93 122c37.67 0 41.6-14.75 60.14-21.5 18.53-6.76 34.78 10.71 41-6.27 6.24-16.98 6.2 35.95 6.2 35.95H35.94V122Z" fill-opacity=".1"/><path d="M-2 4.87C9.73 3.75 5.96 16.8 10.6 16.8c1.85 0 4.03-8.46 7.38-8.46 2.46 0 2 5.5 7.32 4.91 5-.54 4.08-4 6.6-4 5.45 0 3.39 20.2 7.74 20.2 4.36 0 5.73-14.8 7.65-20.64 2.43-7.4 16.97-11.56 6.6-14.5H-2.29" fill-opacity=".4"/></g></g></g></g><g transform="translate(52 124)"><path fill-rule="evenodd" clip-rule="evenodd" d="M18 10.22C18 21.78 24.47 28 38 28c13.52 0 20-6.34 20-17.78C58 9.5 57.17 8 55 8H21c-2.05 0-3 1.38-3 2.22Z" fill="#000" fill-opacity=".8"/><mask id="mouthSmile02-a" style="mask-type:luminance" maskUnits="userSpaceOnUse" x="18" y="8" width="40" height="20"><path fill-rule="evenodd" clip-rule="evenodd" d="M18 10.22C18 21.78 24.47 28 38 28c13.52 0 20-6.34 20-17.78C58 9.5 57.17 8 55 8H21c-2.05 0-3 1.38-3 2.22Z" fill="#fff"/></mask><g mask="url(#mouthSmile02-a)"><rect x="30" y="2" width="16" height="14" rx="2" fill="#fff"/></g></g><g transform="translate(38 76)"><g fill="#fff"><circle cx="24" cy="30" r="6"/><circle cx="80" cy="30" r="6"/></g></g></g></svg>