<svg width="19" height="18" viewBox="0 0 19 18" fill="none" xmlns="http://www.w3.org/2000/svg">
<path fill-rule="evenodd" clip-rule="evenodd" d="M18.2337 9.20419C18.2337 8.56601 18.1755 7.95237 18.0673 7.36328H9.44971V10.8446H14.3741C14.162 11.9696 13.5173 12.9228 12.5482 13.561V15.8192H15.5053C17.2355 14.2524 18.2337 11.9451 18.2337 9.20419Z" fill="#4285F4"/>
<path fill-rule="evenodd" clip-rule="evenodd" d="M9.44972 18C11.9202 18 13.9914 17.1941 15.5054 15.8195L12.5482 13.5613C11.7289 14.1013 10.6808 14.4204 9.44972 14.4204C7.06656 14.4204 5.0494 12.8372 4.32988 10.71H1.27295V13.0418C2.77854 15.9831 5.8729 18 9.44972 18Z" fill="#34A853"/>
<path fill-rule="evenodd" clip-rule="evenodd" d="M4.32996 10.7098C4.14696 10.1698 4.04299 9.59301 4.04299 8.99983C4.04299 8.40664 4.14696 7.82983 4.32996 7.28983V4.95801H1.27303C0.653327 6.17301 0.299805 7.54755 0.299805 8.99983C0.299805 10.4521 0.653327 11.8266 1.27303 13.0416L4.32996 10.7098Z" fill="#FBBC05"/>
<path fill-rule="evenodd" clip-rule="evenodd" d="M9.44972 3.57955C10.7931 3.57955 11.9992 4.03364 12.9475 4.92545L15.5719 2.34409C13.9873 0.891818 11.9161 0 9.44972 0C5.8729 0 2.77854 2.01682 1.27295 4.95818L4.32988 7.29C5.0494 5.16273 7.06656 3.57955 9.44972 3.57955Z" fill="#EA4335"/>
</svg>
