<svg width="246" height="69" viewBox="0 0 246 69" fill="none" xmlns="http://www.w3.org/2000/svg">
<defs>
<filter id="filter0_d_8_1911" x="34" y="0" width="175" height="69" filterUnits="userSpaceOnUse" color-interpolation-filters="sRGB">
<feFlood flood-opacity="0" result="BackgroundImageFix"/>
<feColorMatrix in="SourceAlpha" type="matrix" values="0 0 0 0 0 0 0 0 0 0 0 0 0 0 0 0 0 0 127 0" result="hardAlpha"/>
<feOffset dx="1"/>
<feGaussianBlur stdDeviation="2.5"/>
<feComposite in2="hardAlpha" operator="out"/>
<feColorMatrix type="matrix" values="0 0 0 0 0.45098 0 0 0 0 0.341176 0 0 0 0 0.788235 0 0 0 1 0"/>
<feBlend mode="normal" in2="BackgroundImageFix" result="effect1_dropShadow_8_1911"/>
<feBlend mode="normal" in="SourceGraphic" in2="effect1_dropShadow_8_1911" result="shape"/>
</filter>
<linearGradient id="paint0_linear_8_1911" x1="124" y1="6.00001" x2="47.8396" y2="93.9675" gradientUnits="userSpaceOnUse">
<stop stop-color="#D256FF"/>
<stop offset="0.863777" stop-color="#6256BF"/>
</linearGradient>
<linearGradient id="paint1_linear_8_1911" x1="39" y1="1.92858" x2="206.729" y2="34.7981" gradientUnits="userSpaceOnUse">
<stop stop-color="#B0B0B0"/>
<stop offset="1" stop-color="#CA56FB"/>
</linearGradient>
</defs>
<g opacity="0.92" filter="url(#filter0_d_8_1911)">
<path d="M173.5 5.5H67.5C51.4837 5.5 38.5 18.4837 38.5 34.5C38.5 50.5163 51.4837 63.5 67.5 63.5H173.5C189.516 63.5 202.5 50.5163 202.5 34.5C202.5 18.4837 189.516 5.5 173.5 5.5Z" fill="url(#paint0_linear_8_1911)" stroke="url(#paint1_linear_8_1911)"/>
<path d="M75.5608 40.2C74.4274 40.2 73.4541 40.0067 72.6408 39.62C71.8408 39.2333 71.1141 38.6533 70.4608 37.88L72.2608 36.08C72.6741 36.6267 73.1541 37.0533 73.7008 37.36C74.2474 37.6533 74.9141 37.8 75.7008 37.8C76.4074 37.8 76.9674 37.66 77.3808 37.38C77.8074 37.1 78.0208 36.7133 78.0208 36.22C78.0208 35.7933 77.9008 35.4467 77.6608 35.18C77.4208 34.9133 77.1008 34.6867 76.7008 34.5C76.3141 34.3133 75.8808 34.1467 75.4008 34C74.9341 33.84 74.4608 33.66 73.9808 33.46C73.5141 33.26 73.0808 33.0133 72.6808 32.72C72.2941 32.4133 71.9808 32.0267 71.7408 31.56C71.5008 31.08 71.3808 30.48 71.3808 29.76C71.3808 28.9067 71.5874 28.18 72.0008 27.58C72.4141 26.98 72.9808 26.52 73.7008 26.2C74.4208 25.88 75.2341 25.72 76.1408 25.72C77.1008 25.72 77.9674 25.9 78.7408 26.26C79.5141 26.62 80.1474 27.0867 80.6408 27.66L78.8408 29.46C78.4274 29.0067 78.0008 28.6733 77.5608 28.46C77.1341 28.2467 76.6474 28.14 76.1008 28.14C75.4741 28.14 74.9808 28.26 74.6208 28.5C74.2608 28.74 74.0808 29.0867 74.0808 29.54C74.0808 29.9267 74.2008 30.24 74.4408 30.48C74.6808 30.72 74.9941 30.9267 75.3808 31.1C75.7808 31.2733 76.2141 31.44 76.6808 31.6C77.1608 31.76 77.6341 31.94 78.1008 32.14C78.5808 32.34 79.0141 32.6 79.4008 32.92C79.8008 33.24 80.1208 33.6533 80.3608 34.16C80.6008 34.6533 80.7208 35.2667 80.7208 36C80.7208 37.3067 80.2608 38.3333 79.3408 39.08C78.4208 39.8267 77.1608 40.2 75.5608 40.2ZM88.1475 40.2C87.4542 40.2 86.8275 40.06 86.2675 39.78C85.7075 39.4867 85.2608 39.0933 84.9275 38.6C84.5942 38.1067 84.4142 37.54 84.3875 36.9V33.48C84.4142 32.84 84.5942 32.2733 84.9275 31.78C85.2742 31.2733 85.7208 30.8733 86.2675 30.58C86.8275 30.2867 87.4542 30.14 88.1475 30.14C89.0408 30.14 89.8408 30.36 90.5475 30.8C91.2542 31.24 91.8075 31.84 92.2075 32.6C92.6208 33.36 92.8275 34.22 92.8275 35.18C92.8275 36.1267 92.6208 36.98 92.2075 37.74C91.8075 38.5 91.2542 39.1 90.5475 39.54C89.8408 39.98 89.0408 40.2 88.1475 40.2ZM87.6875 37.78C88.1675 37.78 88.5942 37.6733 88.9675 37.46C89.3408 37.2333 89.6275 36.9267 89.8275 36.54C90.0408 36.14 90.1475 35.68 90.1475 35.16C90.1475 34.6533 90.0408 34.2067 89.8275 33.82C89.6275 33.42 89.3408 33.1133 88.9675 32.9C88.5942 32.6733 88.1675 32.56 87.6875 32.56C87.2208 32.56 86.8008 32.6733 86.4275 32.9C86.0542 33.1133 85.7608 33.42 85.5475 33.82C85.3475 34.2067 85.2475 34.6533 85.2475 35.16C85.2475 35.68 85.3475 36.14 85.5475 36.54C85.7608 36.9267 86.0475 37.2333 86.4075 37.46C86.7808 37.6733 87.2075 37.78 87.6875 37.78ZM82.7875 44.04V30.34H85.4075V32.88L84.9675 35.22L85.3875 37.56V44.04H82.7875ZM94.7453 40V30.34H97.3853V40H94.7453ZM96.0653 28.78C95.6386 28.78 95.2853 28.64 95.0053 28.36C94.7253 28.0667 94.5853 27.7067 94.5853 27.28C94.5853 26.8667 94.7253 26.5133 95.0053 26.22C95.2853 25.9267 95.6386 25.78 96.0653 25.78C96.5053 25.78 96.8586 25.9267 97.1253 26.22C97.4053 26.5133 97.5453 26.8667 97.5453 27.28C97.5453 27.7067 97.4053 28.0667 97.1253 28.36C96.8586 28.64 96.5053 28.78 96.0653 28.78ZM106.406 40V34.46C106.406 33.8867 106.226 33.42 105.866 33.06C105.506 32.7 105.04 32.52 104.466 32.52C104.093 32.52 103.76 32.6 103.466 32.76C103.173 32.92 102.94 33.1467 102.766 33.44C102.606 33.7333 102.526 34.0733 102.526 34.46L101.506 33.94C101.506 33.18 101.666 32.52 101.986 31.96C102.32 31.3867 102.773 30.94 103.346 30.62C103.933 30.3 104.593 30.14 105.326 30.14C106.033 30.14 106.666 30.32 107.226 30.68C107.786 31.0267 108.226 31.4867 108.546 32.06C108.866 32.62 109.026 33.2267 109.026 33.88V40H106.406ZM99.9062 40V30.34H102.526V40H99.9062ZM116.863 40V26.32H119.483V40H116.863ZM114.603 32.64V30.34H121.743V32.64H114.603ZM127.722 40.2C126.749 40.2 125.869 39.98 125.082 39.54C124.309 39.0867 123.689 38.48 123.222 37.72C122.769 36.9467 122.542 36.0867 122.542 35.14C122.542 34.1933 122.769 33.3467 123.222 32.6C123.675 31.84 124.295 31.24 125.082 30.8C125.869 30.3467 126.742 30.12 127.702 30.12C128.689 30.12 129.569 30.3467 130.342 30.8C131.129 31.24 131.749 31.84 132.202 32.6C132.655 33.3467 132.882 34.1933 132.882 35.14C132.882 36.0867 132.655 36.9467 132.202 37.72C131.749 38.48 131.129 39.0867 130.342 39.54C129.569 39.98 128.695 40.2 127.722 40.2ZM127.702 37.76C128.195 37.76 128.629 37.6533 129.002 37.44C129.389 37.2133 129.682 36.9067 129.882 36.52C130.095 36.12 130.202 35.6667 130.202 35.16C130.202 34.6533 130.095 34.2067 129.882 33.82C129.669 33.4333 129.375 33.1333 129.002 32.92C128.629 32.6933 128.195 32.58 127.702 32.58C127.222 32.58 126.795 32.6933 126.422 32.92C126.049 33.1333 125.755 33.4333 125.542 33.82C125.329 34.2067 125.222 34.6533 125.222 35.16C125.222 35.6667 125.329 36.12 125.542 36.52C125.755 36.9067 126.049 37.2133 126.422 37.44C126.795 37.6533 127.222 37.76 127.702 37.76ZM141.455 40L137.835 30.34H140.475L142.835 37.36L142.035 37.38L144.455 30.34H146.355L148.775 37.38L147.975 37.36L150.335 30.34H152.975L149.375 40H147.475L145.035 33.32H145.775L143.335 40H141.455ZM154.29 40V30.34H156.93V40H154.29ZM155.61 28.78C155.183 28.78 154.83 28.64 154.55 28.36C154.27 28.0667 154.13 27.7067 154.13 27.28C154.13 26.8667 154.27 26.5133 154.55 26.22C154.83 25.9267 155.183 25.78 155.61 25.78C156.05 25.78 156.403 25.9267 156.67 26.22C156.95 26.5133 157.09 26.8667 157.09 27.28C157.09 27.7067 156.95 28.0667 156.67 28.36C156.403 28.64 156.05 28.78 155.61 28.78ZM165.951 40V34.46C165.951 33.8867 165.771 33.42 165.411 33.06C165.051 32.7 164.584 32.52 164.011 32.52C163.637 32.52 163.304 32.6 163.011 32.76C162.717 32.92 162.484 33.1467 162.311 33.44C162.151 33.7333 162.071 34.0733 162.071 34.46L161.051 33.94C161.051 33.18 161.211 32.52 161.531 31.96C161.864 31.3867 162.317 30.94 162.891 30.62C163.477 30.3 164.137 30.14 164.871 30.14C165.577 30.14 166.211 30.32 166.771 30.68C167.331 31.0267 167.771 31.4867 168.091 32.06C168.411 32.62 168.571 33.2267 168.571 33.88V40H165.951ZM159.451 40V30.34H162.071V40H159.451ZM171.401 35.1L171.001 25.54H173.801L173.401 35.1H171.401ZM172.401 40.2C171.921 40.2 171.528 40.04 171.221 39.72C170.915 39.4 170.761 39.0067 170.761 38.54C170.761 38.0733 170.915 37.68 171.221 37.36C171.528 37.04 171.921 36.88 172.401 36.88C172.881 36.88 173.275 37.04 173.581 37.36C173.888 37.68 174.041 38.0733 174.041 38.54C174.041 39.0067 173.888 39.4 173.581 39.72C173.275 40.04 172.881 40.2 172.401 40.2Z" fill="white"/>
</g>
</svg>
