<svg width="21" height="21" viewBox="0 0 21 21" fill="none" xmlns="http://www.w3.org/2000/svg">
<path fill-rule="evenodd" clip-rule="evenodd" d="M10.2898 0C4.60693 0 0 4.60687 0 10.2898C0 15.9727 4.60693 20.5797 10.2898 20.5797C15.9728 20.5797 20.5797 15.9727 20.5797 10.2898C20.5797 4.60687 15.9728 0 10.2898 0ZM10.2898 18.5217C5.75079 18.5217 2.05797 14.8289 2.05797 10.2898C2.05797 5.75079 5.75079 2.05797 10.2898 2.05797C14.8289 2.05797 18.5217 5.75079 18.5217 10.2898C18.5217 14.8289 14.8289 18.5217 10.2898 18.5217ZM11.5783 6.1739C11.5783 6.91995 11.0351 7.46012 10.3003 7.46012C9.53572 7.46012 9.00585 6.91995 9.00585 6.15962C9.00585 5.42886 9.55006 4.88767 10.3003 4.88767C11.0351 4.88767 11.5783 5.42886 11.5783 6.1739ZM9.2631 9.26084H11.3211V15.4347H9.2631V9.26084Z" fill="white"/>
</svg>
