<svg width="30" height="26" viewBox="0 0 30 26" fill="none" xmlns="http://www.w3.org/2000/svg">
<g clip-path="url(#clip0_1_255)">
<path d="M12.7436 14.0521L1.15385 3.06654C1.13268 3.04666 1.11588 3.023 1.10442 2.99694C1.09295 2.97087 1.08705 2.94291 1.08705 2.91467C1.08705 2.88643 1.09295 2.85847 1.10442 2.8324C1.11588 2.80634 1.13268 2.78268 1.15385 2.7628L2.72564 1.2757C2.75974 1.24365 2.80582 1.22566 2.85385 1.22566C2.90187 1.22566 2.94795 1.24365 2.98205 1.2757L27.2923 24.3136C27.3135 24.3341 27.3253 24.3616 27.3253 24.3902C27.3253 24.4188 27.3135 24.4463 27.2923 24.4667L25.6256 26.0462C25.5955 26.0741 25.555 26.0897 25.5128 26.0897C25.4707 26.0897 25.4302 26.0741 25.4 26.0462L22.2256 23.0355C22.0925 22.911 21.9138 22.8412 21.7282 22.8411H4.61795C4.53419 22.8411 4.49146 22.8014 4.48975 22.7221C4.48205 21.3176 4.23077 19.1574 4.75897 17.906C5.76923 15.5174 10.0949 14.6378 12.6718 14.2587C12.6954 14.2554 12.7175 14.246 12.7358 14.2315C12.7541 14.217 12.7677 14.1979 12.7751 14.1765C12.7826 14.155 12.7836 14.132 12.778 14.1101C12.7724 14.0881 12.7605 14.068 12.7436 14.0521Z" fill="white"/>
<path d="M10.8564 5.04935C10.8278 5.02246 10.8051 4.99048 10.7896 4.95524C10.7741 4.92 10.7661 4.8822 10.7661 4.84402C10.7661 4.80584 10.7741 4.76804 10.7896 4.7328C10.8051 4.69756 10.8278 4.66557 10.8564 4.63869L11.3538 4.16729C12.3532 3.21726 13.7043 2.67716 15.1103 2.66577C16.5163 2.65438 17.8619 3.17262 18.8513 4.10654L18.8949 4.14785C19.884 5.08193 20.4359 6.35513 20.4292 7.6875C20.4225 9.01987 19.8577 10.3023 18.859 11.2529L18.3615 11.7267C18.3332 11.7538 18.2994 11.7754 18.2622 11.79C18.225 11.8047 18.1852 11.8123 18.1449 11.8123C18.1046 11.8123 18.0647 11.8047 18.0275 11.79C17.9903 11.7754 17.9566 11.7538 17.9282 11.7267L10.8564 5.04935Z" fill="white"/>
<path d="M21.5667 15.2161C21.5605 15.2103 21.5566 15.2028 21.5555 15.1947C21.5544 15.1866 21.5563 15.1784 21.5607 15.1714C21.5651 15.1644 21.5719 15.159 21.58 15.1561C21.588 15.1531 21.5969 15.1529 21.6051 15.1553C23.5487 15.7968 25.4718 16.7566 25.7308 18.8974C25.7547 19.0853 25.6957 19.1128 25.5538 18.98L21.5667 15.2161Z" fill="white"/>
</g>
<defs>
<clipPath id="clip0_1_255">
<rect width="30" height="26" fill="white"/>
</clipPath>
</defs>
</svg>
