<svg width="30" height="26" viewBox="0 0 30 26" fill="none" xmlns="http://www.w3.org/2000/svg">
<path d="M24.375 14.625H22.5V23.5625C22.5 23.901 22.4268 24.2184 22.2803 24.5146C22.1338 24.8109 21.9336 25.069 21.6797 25.2891C21.4258 25.5091 21.1279 25.6826 20.7861 25.8096C20.4443 25.9365 20.0781 26 19.6875 26C19.2969 26 18.9307 25.9365 18.5889 25.8096C18.2471 25.6826 17.9492 25.5091 17.6953 25.2891C17.4414 25.069 17.2412 24.8109 17.0947 24.5146C16.9482 24.2184 16.875 23.901 16.875 23.5625V14.625H15V13H18.75V6.03027L16.875 4.40527V0H22.5V4.40527L20.625 6.03027V13H24.375V14.625ZM18.75 3.71973L19.6875 4.54492L20.625 3.71973V1.625H18.75V3.71973ZM20.625 14.625H18.75V23.5625C18.75 23.7826 18.8428 23.973 19.0283 24.1338C19.2139 24.2946 19.4336 24.375 19.6875 24.375C19.9414 24.375 20.1611 24.2946 20.3467 24.1338C20.5322 23.973 20.625 23.7826 20.625 23.5625V14.625ZM10.3125 0C10.957 0 11.5625 0.105794 12.1289 0.317383C12.6953 0.528971 13.1885 0.820964 13.6084 1.19336C14.0283 1.56576 14.3652 1.9974 14.6191 2.48828C14.873 2.97917 15 3.50391 15 4.0625C15 4.69727 14.834 5.29818 14.502 5.86523C14.1699 6.43229 13.7109 6.91048 13.125 7.2998V23.5625C13.125 23.901 13.0518 24.2184 12.9053 24.5146C12.7588 24.8109 12.5586 25.069 12.3047 25.2891C12.0508 25.5091 11.7529 25.6826 11.4111 25.8096C11.0693 25.9365 10.7031 26 10.3125 26C9.92188 26 9.55566 25.9365 9.21387 25.8096C8.87207 25.6826 8.57422 25.5091 8.32031 25.2891C8.06641 25.069 7.86621 24.8109 7.71973 24.5146C7.57324 24.2184 7.5 23.901 7.5 23.5625V7.2998C6.91406 6.91895 6.45508 6.44499 6.12305 5.87793C5.79102 5.31087 5.625 4.70573 5.625 4.0625C5.625 3.50391 5.74707 2.97917 5.99121 2.48828C6.23535 1.9974 6.56738 1.56999 6.9873 1.20605C7.40723 0.842122 7.90527 0.55013 8.48145 0.330078C9.05762 0.110026 9.66797 0 10.3125 0ZM11.25 6.39844C11.5234 6.26302 11.7725 6.11914 11.9971 5.9668C12.2217 5.81445 12.4219 5.64941 12.5977 5.47168C12.7734 5.29395 12.9004 5.08659 12.9785 4.84961C13.0566 4.61263 13.1055 4.35026 13.125 4.0625C13.125 3.80859 13.0811 3.56315 12.9932 3.32617C12.9053 3.08919 12.7783 2.86914 12.6123 2.66602C12.4463 2.46289 12.2461 2.28516 12.0117 2.13281C11.7773 1.98047 11.5234 1.86198 11.25 1.77734V4.0625L10.3125 4.875L9.375 4.0625V1.77734C9.0918 1.86198 8.83789 1.98047 8.61328 2.13281C8.38867 2.28516 8.19336 2.46289 8.02734 2.66602C7.86133 2.86914 7.73438 3.08919 7.64648 3.32617C7.55859 3.56315 7.50977 3.80859 7.5 4.0625C7.5 4.35872 7.54395 4.62109 7.63184 4.84961C7.71973 5.07812 7.85156 5.28125 8.02734 5.45898C8.20312 5.63672 8.39844 5.80599 8.61328 5.9668C8.82812 6.1276 9.08203 6.27148 9.375 6.39844V23.5625C9.375 23.7826 9.46777 23.973 9.65332 24.1338C9.83887 24.2946 10.0586 24.375 10.3125 24.375C10.5664 24.375 10.7861 24.2946 10.9717 24.1338C11.1572 23.973 11.25 23.7826 11.25 23.5625V6.39844Z" fill="white"/>
</svg>
 