<svg width="32" height="30" viewBox="0 0 32 30" fill="none" xmlns="http://www.w3.org/2000/svg">
<path d="M27.2105 12.6492C27.2105 6.21553 21.995 1 15.5613 1C9.12764 1 3.91211 6.21553 3.91211 12.6492" stroke="white" stroke-width="2" stroke-linecap="round" stroke-linejoin="round"/>
<path d="M1 19.1126V16.3797C1 15.0433 1.9095 13.8785 3.20597 13.5543L5.73902 12.9211C6.29045 12.7832 6.82461 13.2002 6.82461 13.7687V21.7236C6.82461 22.2921 6.29045 22.7092 5.73902 22.5713L3.20597 21.938C1.9095 21.6139 1 20.4491 1 19.1126Z" stroke="white" stroke-width="2"/>
<path d="M30.1234 19.1126V16.3797C30.1234 15.0433 29.2139 13.8785 27.9175 13.5543L25.3844 12.9211C24.8329 12.7832 24.2988 13.2002 24.2988 13.7687V21.7236C24.2988 22.2921 24.8329 22.7092 25.3844 22.5713L27.9175 21.938C29.2139 21.6139 30.1234 20.4491 30.1234 19.1126Z" stroke="white" stroke-width="2"/>
<path d="M27.211 22.8418V23.5699C27.211 25.1783 25.9071 26.4822 24.2987 26.4822H19.2021" stroke="white" stroke-width="2"/>
<path d="M17.746 28.6673H13.3776C12.1713 28.6673 11.1934 27.6893 11.1934 26.4831C11.1934 25.2768 12.1713 24.2988 13.3776 24.2988H17.746C18.9523 24.2988 19.9303 25.2768 19.9303 26.4831C19.9303 27.6893 18.9523 28.6673 17.746 28.6673Z" stroke="white" stroke-width="2"/>
</svg>
