<svg width="284" height="221" viewBox="0 0 284 221" fill="none" xmlns="http://www.w3.org/2000/svg">
<defs>
<linearGradient id="paint0_linear_103_6014" x1="26" y1="90.5" x2="285.74" y2="400.299" gradientUnits="userSpaceOnUse">
<stop offset="0.0412478" stop-color="#F8F8F8"/>
<stop offset="1"/>
</linearGradient>
<linearGradient id="paint1_linear_103_6014" x1="-147" y1="19.5" x2="112.74" y2="329.299" gradientUnits="userSpaceOnUse">
<stop offset="0.0412478" stop-color="#D256FF"/>
<stop offset="1" stop-color="#6256BF"/>
</linearGradient>
<linearGradient id="paint2_linear_103_6014" x1="146.36" y1="83.7943" x2="111.87" y2="126.171" gradientUnits="userSpaceOnUse">
<stop stop-color="#D256FF"/>
<stop offset="1" stop-color="#6256BF"/>
</linearGradient>
<linearGradient id="paint3_linear_103_6014" x1="87.0464" y1="131.138" x2="156.532" y2="182.233" gradientUnits="userSpaceOnUse">
<stop stop-color="#D256FF"/>
<stop offset="1" stop-color="#6256BF"/>
</linearGradient>
<linearGradient id="paint4_linear_103_6014" x1="88.4196" y1="115.978" x2="88.4196" y2="133.29" gradientUnits="userSpaceOnUse">
<stop stop-color="#D256FF"/>
<stop offset="1" stop-color="#6256BF"/>
</linearGradient>
<linearGradient id="paint5_linear_103_6014" x1="137.072" y1="157.574" x2="137.072" y2="174.887" gradientUnits="userSpaceOnUse">
<stop stop-color="#D256FF"/>
<stop offset="1" stop-color="#6256BF"/>
</linearGradient>
<linearGradient id="paint6_linear_103_6014" x1="171.768" y1="99.9521" x2="171.768" y2="112.881" gradientUnits="userSpaceOnUse">
<stop stop-color="#D256FF"/>
<stop offset="1" stop-color="#6256BF"/>
</linearGradient>
<linearGradient id="paint7_linear_103_6014" x1="195.782" y1="115.002" x2="195.782" y2="125.248" gradientUnits="userSpaceOnUse">
<stop stop-color="#D256FF"/>
<stop offset="1" stop-color="#6256BF"/>
</linearGradient>
<linearGradient id="paint8_linear_103_6014" x1="219.263" y1="128.726" x2="219.263" y2="134.178" gradientUnits="userSpaceOnUse">
<stop stop-color="#D256FF"/>
<stop offset="1" stop-color="#6256BF"/>
</linearGradient>
<linearGradient id="paint9_linear_103_6014" x1="219.302" y1="133.761" x2="219.302" y2="141.529" gradientUnits="userSpaceOnUse">
<stop stop-color="#D256FF"/>
<stop offset="1" stop-color="#6256BF"/>
</linearGradient>
<linearGradient id="paint10_linear_103_6014" x1="130.781" y1="47.6709" x2="130.781" y2="56.4281" gradientUnits="userSpaceOnUse">
<stop stop-color="#D256FF"/>
<stop offset="1" stop-color="#6256BF"/>
</linearGradient>
<linearGradient id="paint11_linear_103_6014" x1="106.18" y1="58.6172" x2="106.18" y2="62.4485" gradientUnits="userSpaceOnUse">
<stop stop-color="#D256FF"/>
<stop offset="1" stop-color="#6256BF"/>
</linearGradient>
<linearGradient id="paint12_linear_103_6014" x1="106.181" y1="62.4482" x2="106.181" y2="67.9215" gradientUnits="userSpaceOnUse">
<stop stop-color="#D256FF"/>
<stop offset="1" stop-color="#6256BF"/>
</linearGradient>
<clipPath id="clip0_103_6014">
<rect width="300" height="277" fill="white" transform="translate(-16)"/>
</clipPath>
</defs>
<g clip-path="url(#clip0_103_6014)">
<circle cx="165.5" cy="253.5" r="106.5" fill="url(#paint0_linear_103_6014)"/>
<path d="M99 182.5C99 241.318 51.3183 289 -7.5 289C-66.3183 289 -114 241.318 -114 182.5C-114 123.682 -66.3183 76 -7.5 76C51.3183 76 99 123.682 99 182.5ZM-81.8905 182.5C-81.8905 223.585 -48.5847 256.891 -7.5 256.891C33.5847 256.891 66.8905 223.585 66.8905 182.5C66.8905 141.415 33.5847 108.11 -7.5 108.11C-48.5847 108.11 -81.8905 141.415 -81.8905 182.5Z" fill="url(#paint1_linear_103_6014)"/>
<path d="M149.814 217.402L37.2008 152.303C36.4136 151.849 36.4136 151.115 37.2008 150.661L103.172 112.507C103.613 112.284 104.1 112.168 104.594 112.168C105.088 112.168 105.574 112.284 106.015 112.507L218.629 177.638C219.416 178.087 219.416 178.826 218.629 179.28L152.635 217.429C152.195 217.645 151.711 217.755 151.221 217.751C150.731 217.746 150.25 217.626 149.814 217.402Z" fill="#E6E6E6"/>
<path d="M126.396 123.552C127.785 123.579 130.081 121.779 130.431 119.546C130.78 117.312 131.442 115.55 134.618 114.346C137.794 113.142 139.582 112.595 140.599 109.825C141.615 107.056 140.052 103.936 139.609 101.577C139.166 99.2179 141.347 96.4703 144.529 93.876C147.711 91.2817 149.547 88.5451 146.716 86.9031C143.884 85.2611 140.353 85.9507 137.264 87.9375C134.175 89.9243 131.753 92.5296 127.971 92.1848C124.188 91.84 122.05 93.46 121.307 96.443C120.563 99.4259 121.64 103.208 118.819 104.144V116.814L126.396 123.552Z" fill="url(#paint2_linear_103_6014)"/>
<path d="M120.667 117.838H120.607C120.537 117.822 120.476 117.779 120.437 117.719C120.398 117.658 120.385 117.585 120.399 117.515C123.291 104.981 136.346 91.1062 143.398 88.2272C143.431 88.2093 143.468 88.1987 143.506 88.196C143.544 88.1933 143.582 88.1986 143.618 88.2115C143.654 88.2244 143.687 88.2447 143.714 88.2711C143.742 88.2974 143.764 88.3292 143.778 88.3645C143.793 88.3998 143.8 88.4377 143.799 88.4758C143.798 88.514 143.789 88.5515 143.773 88.586C143.756 88.6205 143.733 88.6512 143.704 88.6761C143.676 88.701 143.642 88.7197 143.605 88.7308C136.657 91.5714 123.789 105.26 120.935 117.635C120.918 117.693 120.883 117.745 120.835 117.781C120.787 117.818 120.728 117.837 120.667 117.838Z" fill="white"/>
<path d="M127.937 102.857C127.872 102.857 127.81 102.834 127.761 102.791C127.712 102.749 127.679 102.691 127.669 102.627C127.288 100.505 126.534 98.4667 125.444 96.6068C125.407 96.5448 125.395 96.4708 125.412 96.4003C125.428 96.3299 125.471 96.2685 125.531 96.2292C125.562 96.2101 125.596 96.1972 125.631 96.1912C125.667 96.1853 125.703 96.1864 125.738 96.1946C125.773 96.2027 125.806 96.2177 125.836 96.2387C125.865 96.2596 125.89 96.2862 125.909 96.3168C127.045 98.2422 127.823 100.358 128.205 102.562C128.212 102.597 128.211 102.634 128.204 102.669C128.196 102.704 128.181 102.737 128.16 102.767C128.139 102.796 128.112 102.82 128.082 102.839C128.051 102.857 128.016 102.869 127.98 102.874L127.937 102.857Z" fill="white"/>
<path d="M125.68 106.667C125.619 106.667 125.56 106.647 125.512 106.61C125.464 106.574 125.429 106.523 125.412 106.464C125.403 106.429 125.401 106.393 125.406 106.357C125.411 106.322 125.423 106.287 125.441 106.256C125.46 106.225 125.484 106.198 125.513 106.177C125.541 106.155 125.574 106.139 125.609 106.13C129.906 104.992 135.334 106.081 135.564 106.13C135.6 106.138 135.634 106.152 135.664 106.172C135.695 106.193 135.721 106.219 135.741 106.249C135.761 106.28 135.775 106.314 135.782 106.35C135.79 106.386 135.79 106.423 135.782 106.459C135.775 106.495 135.761 106.529 135.741 106.559C135.72 106.59 135.694 106.616 135.664 106.636C135.633 106.657 135.599 106.671 135.563 106.678C135.527 106.685 135.49 106.685 135.454 106.678C135.4 106.678 129.917 105.583 125.746 106.678C125.723 106.68 125.701 106.676 125.68 106.667Z" fill="white"/>
<path d="M173.994 49.9201L176.088 50.7247V46.1052C176.088 42.4382 179.007 41.557 182.178 43.3686C185.348 45.2021 187.918 49.6574 187.918 53.3245V54.0196C188.364 53.8805 188.837 53.8453 189.299 53.9164C189.761 53.9875 190.201 54.1632 190.585 54.43C191.787 55.2157 192.787 56.2737 193.504 57.5185C194.221 58.7633 194.635 60.1597 194.713 61.5945V61.901L197.637 63.5923C198.432 64.1078 199.093 64.8038 199.568 65.6236C200.043 66.4434 200.318 67.3639 200.371 68.3102C200.371 70.0452 199.157 70.7513 197.637 69.881L173.994 56.1979C173.2 55.6824 172.538 54.9864 172.063 54.1666C171.588 53.3468 171.313 52.4263 171.261 51.48C171.272 49.7559 172.491 49.0498 173.994 49.9201Z" fill="#8C8C8C"/>
<path d="M197.747 51.4523L201.574 53.6416C201.574 53.472 201.541 53.3078 201.541 53.1381V52.0489C201.541 50.0895 202.919 49.3123 204.613 50.2756C205.328 50.7313 205.936 51.3362 206.395 52.0489C206.674 49.5805 208.582 48.661 210.955 50.0183C213.491 51.4852 215.552 55.0537 215.552 57.9874V59.6294C215.568 60.2872 215.435 60.9401 215.164 61.5395L218.318 63.3621C218.815 63.6858 219.228 64.1221 219.524 64.6356C219.82 65.1492 219.992 65.7255 220.024 66.3177C220.024 67.4123 219.258 67.8447 218.318 67.3029L197.747 55.3931C197.251 55.0694 196.837 54.6331 196.541 54.1196C196.245 53.606 196.074 53.0297 196.041 52.4375C196.02 51.3483 196.785 50.9105 197.747 51.4523Z" fill="#8C8C8C"/>
<path d="M119.026 53.1165L138.969 41.5898L143.408 44.1568L138.969 51.8577L119.026 63.3843V53.1165Z" fill="#455A64"/>
<path d="M140.133 41.5899L137.908 40.3037L117.928 51.8577L120.191 53.1166L140.133 41.5899Z" fill="#37474F"/>
<path d="M117.884 64.6546L97.9415 53.1279L93.4971 55.6949L97.9415 63.3958L117.884 74.9224V64.6546Z" fill="#455A64"/>
<path d="M97.9424 53.1274L100.162 51.8467L120.148 63.3952L117.885 64.6541L97.9424 53.1274Z" fill="#37474F"/>
<path d="M120.186 42.4656C120.162 42.271 120.089 42.0856 119.973 41.9275C119.857 41.7694 119.703 41.6437 119.525 41.5625C119.029 41.3115 118.481 41.1807 117.926 41.1807C117.37 41.1807 116.822 41.3115 116.327 41.5625C116.148 41.6437 115.994 41.7694 115.878 41.9275C115.762 42.0856 115.689 42.271 115.665 42.4656V162.965H120.197V42.4656H120.186Z" fill="#455A64"/>
<path d="M160.12 133.502L133.47 125.802L105.858 102.475C105.481 102.185 105.029 102.009 104.556 101.966C104.083 101.924 103.607 102.016 103.184 102.234L37.1799 140.388C37.0082 140.469 36.8608 140.594 36.7521 140.751C36.6434 140.907 36.5772 141.088 36.5601 141.278C36.543 141.468 36.5755 141.658 36.6545 141.831C36.7335 142.004 36.8562 142.154 37.0104 142.265L64.628 165.592L91.278 173.293L120.12 197.682L149.64 207.441C150.637 207.706 151.697 207.597 152.62 207.134L155.643 205.383L218.624 168.98C219.406 168.531 219.346 167.929 218.487 167.645L188.967 157.891L160.12 133.502Z" fill="#455A64"/>
<path d="M133.471 125.802L64.6289 165.592L91.2789 173.293L160.121 133.503L133.471 125.802Z" fill="#455A64"/>
<path d="M120.12 197.682L149.64 207.441C150.638 207.707 151.698 207.596 152.619 207.129L218.624 168.98C219.406 168.532 219.346 167.93 218.487 167.645L188.967 157.892L120.12 197.682Z" fill="#455A64"/>
<path d="M129.026 128.369L103.77 107.034L43.8115 141.691L69.073 163.026L129.026 128.369Z" fill="#E0E0E0"/>
<path d="M155.675 136.069L95.7223 170.726L69.0723 163.025L129.025 128.368L155.675 136.069Z" fill="#E0E0E0"/>
<g style="mix-blend-mode:multiply" opacity="0.5">
<path d="M155.675 136.069L95.7223 170.726L69.0723 163.025L129.025 128.368L155.675 136.069Z" fill="#E0E0E0"/>
</g>
<path d="M184.54 160.458L124.587 195.115L95.7227 170.726L155.676 136.069L184.54 160.458Z" fill="#E0E0E0"/>
<path d="M209.982 168.859L150.023 203.516L124.587 195.115L184.54 160.458L209.982 168.859Z" fill="#E0E0E0"/>
<g style="mix-blend-mode:multiply" opacity="0.5">
<path d="M209.982 168.859L150.023 203.516L124.587 195.115L184.54 160.458L209.982 168.859Z" fill="#E0E0E0"/>
</g>
<path d="M58.4349 154.044L66.8535 148.91L53.5313 136.069L43.8115 141.69L58.4349 154.044Z" fill="#F0F0F0"/>
<path d="M69.0723 147.623L55.75 134.788L75.7361 123.19L89.0584 136.069L69.0723 147.623Z" fill="#F0F0F0"/>
<path d="M77.9561 121.954L91.2783 134.789L97.9422 130.936L95.7227 111.681L77.9561 121.954Z" fill="#F0F0F0"/>
<path d="M100.162 129.655L97.9424 110.4L103.77 107.034L125.418 125.32L100.162 129.655Z" fill="#F0F0F0"/>
<path d="M76.846 158.537L70.1822 152.117L61.8564 156.928L69.0724 163.025L76.846 158.537Z" fill="#F0F0F0"/>
<path d="M72.4014 150.831L79.0652 157.251L99.0295 145.713L92.382 139.282L72.4014 150.831Z" fill="#F0F0F0"/>
<path d="M101.271 144.416L94.6074 137.996L100.708 134.471L113.484 132.222V137.356L101.271 144.416Z" fill="#F0F0F0"/>
<path d="M115.703 136.069V131.827L126.259 129.972L115.703 136.069Z" fill="#F0F0F0"/>
<path d="M126.811 139.922C124.356 139.211 120.874 139.501 119.037 140.563C117.2 141.624 117.692 143.064 120.13 143.77C122.568 144.476 126.062 144.197 127.904 143.13C129.746 142.062 129.26 140.628 126.811 139.922Z" fill="#E6E6E6"/>
<path d="M119.574 138.526C119.096 138.682 118.634 138.885 118.197 139.134C116.261 140.229 116.212 141.706 116.283 142.281C116.325 142.619 116.431 142.946 116.595 143.244L111.243 146.331L101.25 144.41L113.463 137.35L119.574 138.526Z" fill="#E6E6E6"/>
<path d="M115.703 136.069L122.553 137.257L126.062 137.744L137.909 130.935L129.025 128.368L115.703 136.069Z" fill="#E6E6E6"/>
<path d="M155.653 136.069L138.98 145.708L129.047 144.345C130.66 143.25 130.687 141.947 130.632 141.406C130.589 141.07 130.486 140.746 130.326 140.448L143.812 132.648L155.653 136.069Z" fill="#E6E6E6"/>
<path d="M136.995 146.868L129.03 151.471L115.67 148.926L121.213 145.708L121.257 145.68C121.88 145.764 122.508 145.806 123.137 145.806C124.422 145.817 125.702 145.642 126.937 145.286L136.995 146.868Z" fill="#E6E6E6"/>
<path d="M99.0297 145.713L79.0654 157.251L89.0585 159.177L109.028 147.629L99.0297 145.713Z" fill="#E6E6E6"/>
<path d="M129.03 151.476L115.681 148.909L95.7109 160.458L109.044 163.025L129.03 151.476Z" fill="#E6E6E6"/>
<path d="M76.8459 158.537L69.0723 163.025L77.9556 165.592L86.8389 160.458L76.8459 158.537Z" fill="#E6E6E6"/>
<path d="M106.826 164.311L93.4928 161.744L83.877 167.305L95.7232 170.726L106.826 164.311Z" fill="#E6E6E6"/>
<path d="M142.354 151.476L149.772 165.154L168.998 154.043L151.237 146.337L142.354 151.476Z" fill="#F0F0F0"/>
<path d="M106.825 164.312L109.045 168.159L108.351 181.399L95.7227 170.726L106.825 164.312Z" fill="#F0F0F0"/>
<path d="M109.044 163.025L111.263 166.878L139.111 150.782L136.995 146.868L109.044 163.025Z" fill="#F0F0F0"/>
<path d="M139.002 145.713L141.243 149.55L159.283 139.118L155.675 136.069L139.002 145.713Z" fill="#F0F0F0"/>
<path d="M140.134 152.757L112.374 168.804L111.658 184.195L113.763 185.969L147.569 166.429L140.134 152.757Z" fill="#F0F0F0"/>
<path d="M153.457 145.056L161.088 140.645L173.716 151.312L171.224 152.757L153.457 145.056Z" fill="#F0F0F0"/>
<path d="M117.371 189.018L126.807 183.566L131.251 191.267L124.587 195.115L117.371 189.018Z" fill="#F0F0F0"/>
<path d="M137.908 177.147L129.026 182.281L133.468 189.984L142.35 184.85L137.908 177.147Z" fill="#F0F0F0"/>
<path d="M140.133 175.865L149.694 170.332L153.947 178.142L144.572 183.566L140.133 175.865Z" fill="#F0F0F0"/>
<path d="M156.135 176.883L151.893 169.067L171.223 157.891L180.937 157.409L184.54 160.458L156.135 176.883Z" fill="#F0F0F0"/>
<path d="M175.518 152.84L171.222 155.325L178.148 155.057L175.518 152.84Z" fill="#F0F0F0"/>
<path d="M166.915 181.076C164.465 180.37 160.983 180.655 159.146 181.717C157.31 182.778 157.802 184.218 160.24 184.929C162.678 185.641 166.171 185.351 168.013 184.289C169.856 183.227 169.369 181.766 166.915 181.076Z" fill="#E6E6E6"/>
<path d="M131.251 191.268L140.134 193.835L133.066 197.918L124.587 195.115L131.251 191.268Z" fill="#E6E6E6"/>
<path d="M133.47 189.981L142.353 192.548L151.236 187.414L142.353 184.847L133.47 189.981Z" fill="#E6E6E6"/>
<path d="M144.573 183.566L153.468 186.144L156.425 184.431C156.425 184.431 155.02 181.289 159.158 179.975L153.938 178.158L144.573 183.566Z" fill="#E6E6E6"/>
<path d="M156.134 176.883L161.6 178.853C163.075 178.675 164.565 178.675 166.039 178.853L182.325 169.445L173.441 166.878L156.134 176.883Z" fill="#E6E6E6"/>
<path d="M175.662 165.592L184.545 168.159L193.024 163.26L184.54 160.458L175.662 165.592Z" fill="#E6E6E6"/>
<path d="M198.677 165.127L184.546 173.293L195.649 177.146L209.982 168.86L198.677 165.127Z" fill="#E6E6E6"/>
<path d="M182.326 174.579L170.649 181.328C170.649 181.328 172.081 183.555 170.25 185.318L177.903 187.414L193.451 178.432L182.616 174.732" fill="#E6E6E6"/>
<path d="M175.661 188.7L167.773 186.691C167.773 186.691 163.974 188.18 160.776 187.02L149.011 193.818L146.792 202.438L150.023 203.5L175.661 188.7Z" fill="#E6E6E6"/>
<path d="M146.791 195.115L144.932 201.836L138.717 199.784L146.791 195.115Z" fill="#E6E6E6"/>
<path d="M136.995 174.596C136.9 174.596 136.807 174.571 136.724 174.524C136.642 174.477 136.573 174.41 136.525 174.328C136.451 174.203 136.429 174.054 136.465 173.913C136.501 173.773 136.591 173.652 136.716 173.578L148.409 166.676L137.558 146.836L127.346 145.227C127.236 145.209 127.133 145.159 127.052 145.081C126.972 145.004 126.916 144.903 126.894 144.794C126.872 144.684 126.884 144.57 126.929 144.467C126.974 144.365 127.049 144.278 127.144 144.219C128.658 143.294 129.418 142.419 129.331 141.68C129.243 140.941 128.39 140.235 126.98 139.688C124.881 138.878 120.54 139.14 118.665 140.602C118.207 140.904 117.887 141.374 117.773 141.911C117.66 142.448 117.762 143.008 118.058 143.47C118.099 143.531 118.127 143.601 118.14 143.673C118.154 143.746 118.152 143.821 118.136 143.893C118.119 143.965 118.089 144.033 118.045 144.093C118.002 144.153 117.947 144.203 117.883 144.241L112.253 147.651C112.139 147.718 112.006 147.743 111.876 147.722L100.04 145.599C99.9313 145.576 99.8309 145.523 99.7505 145.445L87.8113 133.404C87.7095 133.302 87.6523 133.163 87.6523 133.018C87.6523 132.874 87.7095 132.735 87.8113 132.633C87.8621 132.581 87.9226 132.541 87.9892 132.513C88.0558 132.485 88.1273 132.471 88.1994 132.471C88.2716 132.471 88.3431 132.485 88.4097 132.513C88.4763 132.541 88.5368 132.581 88.5876 132.633L100.439 144.548L111.919 146.606L116.938 143.568C116.648 142.902 116.599 142.155 116.799 141.456C116.998 140.758 117.434 140.15 118.031 139.737C120.218 138.051 125.007 137.739 127.412 138.642C128.505 139.058 130.32 139.989 130.457 141.554C130.544 142.484 130.014 143.415 128.877 144.329L138.006 145.768C138.09 145.781 138.169 145.813 138.239 145.861C138.308 145.909 138.365 145.973 138.405 146.048L149.639 166.616C149.707 166.741 149.724 166.887 149.686 167.024C149.649 167.161 149.559 167.277 149.437 167.349L137.29 174.519C137.201 174.572 137.099 174.599 136.995 174.596Z" fill="url(#paint3_linear_103_6014)"/>
<path d="M91.8142 116.327L89.9446 115.233C89.0481 114.636 87.8126 114.685 86.4405 115.452C83.7072 117.022 81.5205 121.018 81.5205 124.368V125.134C81.5205 128.483 86.0196 132.129 86.0196 132.129L87.8618 133.174C87.8618 133.174 86.7685 131.91 86.8833 131.652C88.086 129.173 91.3714 122.173 91.3714 119.436V118.675C91.3774 118.121 91.3056 117.568 91.1582 117.033L91.3714 117.154L91.8142 116.327ZM86.4405 124.017C85.0793 124.8 83.975 124.165 83.975 122.594C84.7076 122.479 86.5498 119.31 86.4405 118.32C87.8017 117.537 88.9005 118.172 88.9005 119.743C88.8533 120.598 88.6061 121.431 88.1788 122.173C87.7516 122.916 87.1561 123.547 86.4405 124.017Z" fill="#BA68C8"/>
<path d="M91.8142 116.327L89.9446 115.233C89.0481 114.636 87.8126 114.685 86.4405 115.452C83.7072 117.022 81.5205 121.018 81.5205 124.368V125.134C81.5205 128.483 86.0196 132.129 86.0196 132.129L87.8618 133.174C87.8618 133.174 86.7685 131.91 86.8833 131.652C88.086 129.173 91.3714 122.173 91.3714 119.436V118.675C91.3774 118.121 91.3056 117.568 91.1582 117.033L91.3714 117.154L91.8142 116.327ZM86.4405 124.017C85.0793 124.8 83.975 124.165 83.975 122.594C84.7076 122.479 86.5498 119.31 86.4405 118.32C87.8017 117.537 88.9005 118.172 88.9005 119.743C88.8533 120.598 88.6061 121.431 88.1788 122.173C87.7516 122.916 87.1561 123.547 86.4405 124.017Z" fill="#6256BF"/>
<path d="M93.3341 119.836C93.3341 116.486 91.1475 115.042 88.4141 116.612C85.6808 118.183 83.4941 122.179 83.4941 125.534V126.295C83.4941 128.878 86.4133 131.872 87.7581 133.114C87.8345 133.184 87.9261 133.236 88.0258 133.264C88.1254 133.293 88.2303 133.298 88.3322 133.279C88.4341 133.26 88.5301 133.217 88.6126 133.154C88.6952 133.091 88.762 133.01 88.8077 132.917C89.9667 130.542 93.3451 123.377 93.3451 120.602L93.3341 119.836ZM88.4141 125.156C87.0529 125.944 85.9541 125.304 85.9541 123.733C86.0014 122.878 86.2485 122.045 86.6758 121.303C87.1031 120.56 87.6985 119.928 88.4141 119.458C89.7753 118.676 90.8796 119.311 90.8796 120.887C90.8309 121.742 90.5825 122.574 90.1543 123.315C89.7261 124.057 89.1301 124.687 88.4141 125.156Z" fill="url(#paint4_linear_103_6014)"/>
<path d="M140.468 157.925L138.598 156.83C137.701 156.233 136.466 156.255 135.094 157.049C132.36 158.62 130.174 162.615 130.174 165.965V166.731C130.174 170.081 134.673 173.726 134.673 173.726L136.515 174.771C136.515 174.771 135.422 173.507 135.537 173.25C136.739 170.77 140.025 163.77 140.025 161.033V160.273C140.031 159.718 139.959 159.165 139.812 158.631L140.025 158.751L140.468 157.925ZM135.094 165.614C133.733 166.397 132.628 165.762 132.628 164.191C133.361 164.076 135.203 160.907 135.094 159.917C136.455 159.134 137.554 159.769 137.554 161.34C137.507 162.195 137.259 163.028 136.832 163.77C136.405 164.513 135.809 165.144 135.094 165.614Z" fill="#BA68C8"/>
<path d="M140.468 157.925L138.598 156.83C137.701 156.233 136.466 156.255 135.094 157.049C132.36 158.62 130.174 162.615 130.174 165.965V166.731C130.174 170.081 134.673 173.726 134.673 173.726L136.515 174.771C136.515 174.771 135.422 173.507 135.537 173.25C136.739 170.77 140.025 163.77 140.025 161.033V160.273C140.031 159.718 139.959 159.165 139.812 158.631L140.025 158.751L140.468 157.925ZM135.094 165.614C133.733 166.397 132.628 165.762 132.628 164.191C133.361 164.076 135.203 160.907 135.094 159.917C136.455 159.134 137.554 159.769 137.554 161.34C137.507 162.195 137.259 163.028 136.832 163.77C136.405 164.513 135.809 165.144 135.094 165.614Z" fill="#6256BF"/>
<path d="M141.986 161.433C141.986 158.083 139.8 156.638 137.066 158.209C134.333 159.78 132.146 163.775 132.146 167.13V167.891C132.146 170.475 135.066 173.468 136.41 174.711C136.487 174.781 136.578 174.833 136.678 174.861C136.778 174.89 136.883 174.895 136.985 174.875C137.086 174.856 137.182 174.814 137.265 174.751C137.348 174.688 137.414 174.607 137.46 174.514C138.619 172.138 141.997 164.974 141.997 162.199L141.986 161.433ZM137.066 166.753C135.705 167.541 134.606 166.901 134.606 165.33C134.654 164.474 134.901 163.642 135.328 162.899C135.755 162.157 136.351 161.525 137.066 161.055C138.428 160.272 139.532 160.907 139.532 162.484C139.483 163.339 139.235 164.171 138.807 164.912C138.378 165.653 137.782 166.284 137.066 166.753Z" fill="url(#paint5_linear_103_6014)"/>
<path d="M178.231 93.8481L178.111 93.777L174.361 91.6205C173.492 91.0463 172.471 90.7469 171.43 90.7612C169.9 90.8149 168.411 91.2698 167.112 92.0803C161.481 95.3314 156.922 103.574 156.922 110.525V112.101C156.922 119.036 166.215 126.573 166.215 126.573L170.004 128.718C169.878 128.57 167.724 126.097 167.981 125.577C170.474 120.454 177.274 105.977 177.274 100.318V98.7412C177.286 97.5974 177.141 96.4575 176.842 95.3533L177.28 95.6051L178.231 93.8481ZM171.184 112.101C168.686 113.546 166.614 112.676 166.177 110.186C163.81 111.051 162.017 109.688 162.017 106.803C163.531 106.563 167.336 100.055 167.112 97.9695C169.605 96.5246 171.676 97.3948 172.114 99.8851C174.486 99.0204 176.279 100.383 176.279 103.268C176.279 106.519 174 110.476 171.184 112.101Z" fill="#263238"/>
<path d="M178.231 93.8486L178.11 93.7774C176.29 92.754 173.857 92.8908 171.184 94.4342C167.155 96.7658 163.667 101.664 162.016 106.804C161.364 108.764 161.019 110.813 160.994 112.879V114.444C160.994 119.786 167.035 125.982 169.817 128.549C169.88 128.607 169.947 128.658 170.02 128.702C170.181 128.803 170.362 128.869 170.55 128.896C170.738 128.923 170.93 128.911 171.113 128.859C171.297 128.808 171.467 128.718 171.614 128.597C171.761 128.476 171.88 128.325 171.966 128.155C174.366 123.229 181.357 108.418 181.357 102.677V101.095C181.374 97.5376 180.171 95.0144 178.231 93.8486ZM166.177 110.186C166.115 109.847 166.086 109.502 166.089 109.157C166.089 105.906 168.369 101.949 171.184 100.323C171.481 100.152 171.792 100.005 172.113 99.8856C174.486 99.0208 176.279 100.384 176.279 103.268C176.279 106.519 173.999 110.476 171.184 112.102C168.686 113.547 166.614 112.677 166.177 110.186Z" fill="#455A64"/>
<path d="M172.851 98.5712C172.472 98.723 172.107 98.9061 171.758 99.1186C168.352 101.083 165.597 105.862 165.597 109.791C165.593 110.21 165.629 110.628 165.706 111.039C166.253 114.05 168.74 115.1 171.758 113.354C175.158 111.39 177.919 106.606 177.919 102.676C177.892 99.1678 175.721 97.5204 172.851 98.5712Z" fill="#263238"/>
<path d="M172.158 100.109L173.185 102.298C173.197 102.331 173.216 102.36 173.24 102.385C173.264 102.41 173.293 102.429 173.325 102.442C173.357 102.454 173.392 102.459 173.426 102.457C173.46 102.455 173.494 102.446 173.524 102.43L175.837 101.543C176.203 101.406 176.345 101.921 176.083 102.419L174.41 105.56C174.308 105.744 174.264 105.954 174.284 106.163L174.678 109.003C174.738 109.457 174.355 110.049 174.027 110.01L171.961 109.753C171.877 109.756 171.796 109.78 171.723 109.822C171.651 109.864 171.59 109.923 171.545 109.994L169.479 112.637C169.151 113.059 168.768 112.906 168.834 112.386L169.228 109.102C169.245 109.021 169.243 108.937 169.22 108.858C169.197 108.778 169.155 108.706 169.096 108.647L167.456 107.438C167.188 107.246 167.336 106.562 167.702 106.277L170.009 104.493C170.177 104.351 170.296 104.159 170.348 103.946L171.381 100.558C171.507 100.032 171.994 99.7588 172.158 100.109Z" fill="url(#paint6_linear_103_6014)"/>
<path d="M202.022 107.57L201.902 107.499L198.152 105.342C197.283 104.768 196.262 104.469 195.221 104.483C193.691 104.537 192.202 104.991 190.903 105.802C185.272 109.053 180.713 117.296 180.713 124.247V125.823C180.713 132.758 190.006 140.294 190.006 140.294L193.795 142.44C193.669 142.292 191.515 139.818 191.772 139.298C194.265 134.175 201.065 119.699 201.065 114.039V112.463C201.077 111.319 200.932 110.179 200.633 109.075L201.071 109.327L202.022 107.57ZM194.975 125.823C192.477 127.268 190.405 126.398 189.968 123.907C187.601 124.772 185.808 123.409 185.808 120.525C187.322 120.284 191.127 113.776 190.903 111.691C193.396 110.246 195.467 111.116 195.905 113.607C198.277 112.742 200.07 114.105 200.07 116.989C200.07 120.24 197.791 124.198 194.975 125.823Z" fill="#263238"/>
<path d="M202.022 107.569L201.901 107.498C200.081 106.475 197.648 106.611 194.975 108.155C190.946 110.487 187.458 115.385 185.807 120.524C185.155 122.485 184.81 124.534 184.785 126.6V128.182C184.785 133.523 190.798 139.719 193.608 142.286C193.671 142.344 193.738 142.395 193.811 142.439C193.972 142.54 194.153 142.606 194.341 142.634C194.529 142.661 194.721 142.648 194.905 142.596C195.088 142.545 195.258 142.456 195.405 142.334C195.552 142.213 195.671 142.062 195.757 141.892C198.157 136.966 205.148 122.156 205.148 116.414V114.832C205.165 111.258 203.962 108.735 202.022 107.569ZM189.968 123.907C189.906 123.567 189.877 123.223 189.88 122.878C189.88 119.627 192.16 115.67 194.975 114.044C195.272 113.872 195.583 113.726 195.904 113.606C198.277 112.742 200.07 114.104 200.07 116.989C200.07 120.24 197.79 124.197 194.975 125.823C192.477 127.268 190.405 126.397 189.968 123.907Z" fill="#455A64"/>
<path d="M196.654 112.287C196.266 112.438 195.891 112.621 195.533 112.835C192.128 114.8 189.372 119.583 189.372 123.513C189.368 123.93 189.405 124.346 189.482 124.755C190.028 127.766 192.516 128.817 195.533 127.071C198.934 125.106 201.694 120.322 201.694 116.392C201.683 112.889 199.513 111.242 196.654 112.287Z" fill="#263238"/>
<path d="M200.644 116.299L195.784 115.002L190.919 121.926L192.204 121.181V125.248L195.03 123.617V121.345L196.533 120.475V122.747L199.359 121.116V117.043L200.644 116.299Z" fill="url(#paint7_linear_103_6014)"/>
<path d="M225.812 121.193L225.692 121.122L221.942 118.965C221.073 118.391 220.052 118.092 219.011 118.106C217.481 118.16 215.992 118.614 214.693 119.425C209.062 122.676 204.503 130.919 204.503 137.87V139.446C204.503 146.381 213.796 153.917 213.796 153.917L217.585 156.063C217.459 155.915 215.305 153.441 215.562 152.921C218.055 147.798 224.855 133.322 224.855 127.662V126.086C224.867 124.942 224.722 123.802 224.423 122.698L224.861 122.95L225.812 121.193ZM218.765 139.446C216.267 140.891 214.195 139.993 213.758 137.531C211.391 138.395 209.598 137.032 209.598 134.148C211.112 133.907 214.917 127.4 214.693 125.314C217.186 123.869 219.257 124.74 219.695 127.23C222.067 126.365 223.86 127.728 223.86 130.612C223.86 133.863 221.581 137.821 218.765 139.446Z" fill="#263238"/>
<path d="M225.814 121.192L225.693 121.121C223.873 120.098 221.44 120.235 218.767 121.778C214.738 124.11 211.25 129.008 209.599 134.148C208.947 136.108 208.602 138.157 208.577 140.223V141.81C208.577 147.152 214.618 153.348 217.4 155.915C217.463 155.972 217.53 156.023 217.603 156.068C217.764 156.169 217.945 156.235 218.133 156.262C218.321 156.289 218.513 156.276 218.697 156.225C218.88 156.173 219.05 156.084 219.197 155.963C219.344 155.842 219.463 155.691 219.549 155.521C221.949 150.595 228.94 135.784 228.94 130.043V128.461C228.957 124.881 227.754 122.358 225.814 121.192ZM213.787 137.53C213.726 137.19 213.697 136.846 213.699 136.501C213.699 133.25 215.979 129.293 218.794 127.667C219.091 127.496 219.402 127.349 219.724 127.229C222.096 126.365 223.889 127.727 223.889 130.612C223.889 133.863 221.61 137.82 218.794 139.446C216.269 140.891 214.197 140.02 213.76 137.53H213.787Z" fill="#455A64"/>
<path d="M220.434 125.938C220.046 126.088 219.671 126.271 219.314 126.485C215.908 128.45 213.153 133.234 213.153 137.164C213.149 137.582 213.185 138 213.262 138.411C213.809 141.422 216.291 142.473 219.314 140.727C222.714 138.762 225.469 133.978 225.469 130.048C225.469 126.513 223.304 124.843 220.434 125.938Z" fill="#263238"/>
<path d="M219.263 129.014C220.428 128.34 221.374 128.888 221.374 130.234C221.334 130.967 221.122 131.679 220.755 132.315C220.388 132.95 219.877 133.49 219.263 133.89C218.099 134.563 217.153 134.016 217.153 132.67C217.193 131.937 217.405 131.224 217.772 130.589C218.139 129.954 218.65 129.414 219.263 129.014Z" fill="url(#paint8_linear_103_6014)"/>
<path d="M215.24 141.263C216.334 141.739 217.744 141.586 219.302 140.716C220.964 139.683 222.356 138.268 223.364 136.589V136.233C223.364 134.044 221.811 133.125 219.898 134.23L218.701 134.92C217.691 135.579 216.851 136.469 216.25 137.515C215.649 138.561 215.303 139.735 215.24 140.94V141.263Z" fill="url(#paint9_linear_103_6014)"/>
<path d="M32.9591 88.6914C29.1325 88.8775 26.4811 89.7861 23.7587 92.5227C21.7579 94.5368 17.4447 106.233 19.3253 115.685C19.6444 117.361 20.3503 118.939 21.3868 120.293C22.4232 121.647 23.7613 122.74 25.2945 123.485C26.8277 124.229 28.5134 124.604 30.2172 124.581C31.921 124.557 33.5956 124.135 35.1075 123.348C40.2954 120.699 41.3013 112.495 41.1537 107.711C41.0061 102.927 32.9591 88.6914 32.9591 88.6914Z" fill="#263238"/>
<path d="M28.2472 92.2055C28.2472 92.2055 27.2195 90.859 24.836 91.6089C24.836 91.6089 22.3214 94.6411 20.3807 100.366C20.3807 100.366 19.7629 100.366 20.1565 98.7241C20.5501 97.0821 22.1245 93.2509 23.1359 91.888C24.1472 90.5252 25.574 89.4086 32.4292 86.8909C38.4425 84.7016 36.5183 90.1749 36.5183 90.1749L28.2472 92.2055Z" fill="#37474F"/>
<path d="M16.5655 170.069C15.7619 169.653 15.2535 170.676 14.5264 171.492C14.0126 172.066 13.2199 172.975 13.0996 173.632C12.9247 174.6 13.7994 176.122 14.7396 176.959C15.6799 177.797 16.8279 178.404 17.1778 180.243C17.5276 182.082 18.2711 183.182 20.1462 184.003C22.2399 184.907 25.0662 184.616 25.9846 184.003C27.1107 183.275 26.083 182.482 24.5086 180.221C22.4531 177.277 20.8514 175.17 20.8514 172.422L16.5655 170.069Z" fill="#263238"/>
<path d="M18.2053 167.654L16.5215 170.134C16.1646 170.644 16.0218 171.273 16.1241 171.888C16.2263 172.502 16.5654 173.051 17.0682 173.418L17.1229 173.45C17.6348 173.759 18.239 173.878 18.8296 173.786C19.4202 173.694 19.9597 173.397 20.3537 172.947L22.9886 170.068L18.2053 167.654Z" fill="#FFA8A7"/>
<path d="M49.655 120.053C49.7644 123.211 49.2286 135.291 46.9217 141.333C45.6465 144.764 44.0427 148.063 42.1329 151.185C41.4441 152.356 21.6876 171.617 21.6876 171.617C21.6876 171.617 18.3365 171.37 17.8008 168.114C17.8008 168.114 25.8969 154.338 27.6408 151.508C29.3846 148.678 35.6002 144.349 35.6002 144.349L35.0536 117.858L49.655 120.053Z" fill="#37474F"/>
<path d="M44.8628 186.591L49.042 185.64L47.659 179.55L43.4798 180.501L44.8628 186.591Z" fill="#FFA8A7"/>
<path d="M41.6033 130.261C43.0353 128.947 44.3185 127.478 45.43 125.883C48.6225 121.466 48.1305 117.547 48.1305 117.547H46.824L27.5922 120.081C27.054 123.22 27.132 126.435 27.8218 129.544C29.511 138.077 36.3662 152.658 36.3662 152.658C36.2678 153.835 35.7704 158.788 36.9129 163.177C38.6841 170.107 43.5112 181.83 43.5112 181.83C43.5112 181.83 46.5397 182.263 48.0376 180.511C48.0376 180.511 45.3644 156.708 44.6482 150.611C43.8392 143.983 41.6033 130.261 41.6033 130.261Z" fill="#37474F"/>
<path d="M48.5778 183.571L48.4412 182.975C48.8785 183.057 50.7536 186.171 52.6122 187.528C54.6513 189.012 56.4389 189.887 57.33 190.555C58.549 191.453 56.7833 193.292 53.7876 193.445C52.382 193.545 50.9727 193.309 49.6766 192.755C48.3701 192.131 47.5774 190.966 46.5825 189.964C45.8554 189.231 44.7566 188.694 44.2045 187.807C43.953 187.402 43.9148 186.412 43.9421 185.558C43.9694 184.704 43.9968 183.916 44.2646 183.916L44.3685 184.376C45.1549 184.768 46.0271 184.956 46.905 184.923C47.6102 184.907 48.9222 184.742 48.5778 183.571Z" fill="#263238"/>
<path d="M44.0899 146.544C44.0899 146.544 42.0781 132.221 41.6025 130.261C41.6025 130.261 45.1504 128.909 46.2437 127.667C46.2437 127.667 45.462 129.402 42.9255 130.951L44.0899 146.544Z" fill="#263238"/>
<path d="M36.361 152.631C35.5027 151.449 33.3652 146.123 33.3652 146.123L35.5519 153.014C35.0052 155.077 35.049 158.487 35.049 158.487L36.1423 157.507C36.1478 156.686 36.361 152.631 36.361 152.631Z" fill="#263238"/>
<path d="M47.5009 114.077C44.7238 104.696 45.3142 96.7598 44.7676 94.3242L51.9344 104.428C52.2461 107.761 52.7444 111.074 53.4268 114.351C54.2468 117.936 55.3674 122.407 56.7068 125.188C56.948 125.685 57.3648 126.075 57.8766 126.283C59.2324 126.83 59.861 127.547 60.9489 128.357C61.8017 128.997 62.4522 129.079 62.3976 129.337C62.3018 129.626 62.1008 129.869 61.8345 130.017C61.5681 130.165 61.2559 130.207 60.9598 130.136C60.3045 129.995 59.6678 129.779 59.0629 129.49C59.6789 130.52 60.4559 131.443 61.3644 132.226C63.4417 134.044 63.7369 135.33 60.271 135.948C58.0844 136.342 56.1328 135.292 53.6782 130.765C52.742 129.115 51.9253 127.399 51.2346 125.631C49.6001 121.006 48.3428 116.918 47.5009 114.077Z" fill="#FFA8A7"/>
<path d="M42.3516 90.1367C45.7245 90.1696 49.0482 90.9303 50.1908 94.5153C51.2841 98.0292 52.7492 108.198 52.7492 108.198C52.7492 108.198 51.3278 110.081 46.5937 109.775L42.3516 90.1367Z" fill="#BA68C8"/>
<path d="M42.3516 90.1367C45.7245 90.1696 49.0482 90.9303 50.1908 94.5153C51.2841 98.0292 52.7492 108.198 52.7492 108.198C52.7492 108.198 51.3278 110.081 46.5937 109.775L42.3516 90.1367Z" fill="#6256BF"/>
<g opacity="0.1">
<path d="M42.4941 90.2686C45.8671 90.3014 49.1908 91.0622 50.3333 94.6472C51.4267 98.161 52.8917 108.33 52.8917 108.33C52.8917 108.33 51.4704 110.213 46.7363 109.907L42.4941 90.2686Z" fill="#6256BF"/>
</g>
<path d="M35.42 90.3392C33.0475 90.8865 30.3087 91.3791 28.0127 92.5285C26.4164 93.3112 28.707 106.556 28.707 106.556L27.6136 120.075C30.7624 123.507 42.811 125.105 49.6826 120.075V98.1824C49.6826 94.6795 47.7419 90.476 42.3791 90.1641L35.42 90.3392Z" fill="#6256BF"/>
<path d="M28.6956 106.272L30.7729 100.53L28.3457 110.853L28.6956 106.272Z" fill="#6256BF"/>
<path d="M31.6807 78.1613L33.1676 84.0396C33.3216 84.6493 33.6737 85.1904 34.1685 85.5778C34.6634 85.9653 35.2728 86.1769 35.9009 86.1796H37.6393V77.9697L31.6807 78.1613Z" fill="#263238"/>
<path d="M44.3974 82.2567C47.8463 81.8303 50.2968 78.6854 49.8709 75.2324C49.445 71.7794 46.3039 69.3259 42.855 69.7523C39.4062 70.1787 36.9556 73.3236 37.3815 76.7766C37.8074 80.2296 40.9486 82.6832 44.3974 82.2567Z" fill="#263238"/>
<path d="M33.9113 72.4255C33.5499 72.3829 33.1835 72.4239 32.8404 72.5454C32.4973 72.6668 32.1867 72.8655 31.9323 73.1261C31.0795 73.9909 31.2599 75.6055 31.9323 79.3054L34.5618 79.6064L33.9113 72.4255Z" fill="#263238"/>
<path d="M35.1409 79.6115C34.7528 79.8414 34.1952 79.0915 33.7141 78.588C33.2331 78.0845 31.6641 77.3948 30.8824 79.0477C30.1007 80.7007 31.3307 82.9556 32.5224 83.4263C32.9471 83.6379 33.4374 83.6756 33.8894 83.5316C34.3414 83.3875 34.7197 83.073 34.9441 82.6546L35.4143 90.3172C35.8852 91.3488 36.6039 92.2476 37.5063 92.9333C38.4087 93.619 39.4667 94.0703 40.5857 94.247C44.3632 94.756 43.5869 91.6417 42.346 90.1147V87.7721C43.2929 87.9394 44.2569 87.989 45.216 87.9199C46.5936 87.6627 47.2715 86.3819 47.9493 84.7454C48.9169 82.2989 49.5128 78.8398 48.6764 74.4502C47.5831 68.6376 41.1379 68.5117 37.4533 70.8379C33.7688 73.164 35.1409 79.6115 35.1409 79.6115Z" fill="#FFA8A7"/>
<path d="M35.1409 80.2685C34.9441 80.2685 34.2007 79.0316 33.7141 78.5882C33.0417 77.9752 33.9109 72.4254 33.9109 72.4254C34.2499 67.8771 40.952 67.5323 42.8052 67.4009C47.0473 67.0944 49.9119 69.4479 48.7803 72.4089C48.0149 73.7554 46.446 74.1275 44.9536 74.3027C42.4553 74.6092 38.2077 73.2682 37.672 73.208C36.9504 73.104 36.7973 73.8101 36.4037 75.7257C36.0867 77.4005 35.8024 80.2521 35.1409 80.2685Z" fill="#263238"/>
<path d="M33.9167 72.8582L31.5605 71.5939C31.636 71.4347 31.7429 71.2925 31.8748 71.1758C32.0067 71.0592 32.1609 70.9706 32.328 70.9153C32.4951 70.8601 32.6717 70.8393 32.847 70.8544C33.0224 70.8694 33.1929 70.9199 33.3481 71.0028C33.6628 71.1797 33.8974 71.4712 34.0032 71.8166C34.1091 72.162 34.0781 72.535 33.9167 72.8582Z" fill="#263238"/>
<path d="M42.346 87.7943C42.346 87.7943 38.8473 87.0882 37.6283 86.4369C36.913 86.0702 36.3231 85.4986 35.9336 84.7949C36.1192 85.5096 36.4464 86.1797 36.8957 86.7653C37.7923 87.9092 42.3624 88.7521 42.3624 88.7521L42.346 87.7943Z" fill="#F28F8F"/>
<path d="M42.4565 79.4809C42.4512 79.6181 42.4056 79.7508 42.3256 79.8624C42.2455 79.9739 42.1344 80.0594 42.0062 80.1083C41.878 80.1571 41.7382 80.1672 41.6043 80.1371C41.4704 80.1071 41.3483 80.0383 41.2532 79.9393C41.158 79.8403 41.0941 79.7155 41.0692 79.5804C41.0443 79.4453 41.0597 79.3059 41.1134 79.1795C41.167 79.053 41.2567 78.9452 41.3711 78.8694C41.4855 78.7935 41.6196 78.753 41.7568 78.7529C41.8506 78.7543 41.9432 78.7743 42.0292 78.8118C42.1153 78.8492 42.1931 78.9033 42.2581 78.971C42.3232 79.0386 42.3742 79.1185 42.4083 79.2061C42.4423 79.2936 42.4587 79.387 42.4565 79.4809Z" fill="#263238"/>
<path d="M41.7127 76.8314L40.2148 77.6798C40.1077 77.4733 40.0843 77.2335 40.1495 77.0102C40.2147 76.7868 40.3634 76.5973 40.5647 76.4811C40.6629 76.4278 40.7706 76.3945 40.8818 76.3832C40.9929 76.3719 41.1051 76.3829 41.212 76.4155C41.3188 76.4481 41.4181 76.5017 41.5041 76.5731C41.5901 76.6445 41.661 76.7323 41.7127 76.8314Z" fill="#263238"/>
<path d="M42.0295 84.1709L43.6258 84.773C43.5932 84.883 43.5385 84.9852 43.4648 85.0731C43.3912 85.1611 43.3003 85.233 43.1978 85.2843C43.0953 85.3356 42.9833 85.3653 42.8688 85.3715C42.7544 85.3777 42.6399 85.3603 42.5324 85.3203C42.3152 85.2324 42.141 85.063 42.047 84.8482C41.953 84.6334 41.9467 84.3903 42.0295 84.1709Z" fill="#F28F8F"/>
<path d="M48.3374 77.4168L46.9707 76.3604C47.0357 76.2685 47.1186 76.1906 47.2144 76.1314C47.3102 76.0723 47.4169 76.0331 47.5282 76.0163C47.6395 75.9994 47.753 76.0052 47.862 76.0333C47.9709 76.0614 48.0731 76.1112 48.1624 76.1798C48.3441 76.3245 48.4634 76.5333 48.4959 76.7634C48.5285 76.9935 48.4717 77.2273 48.3374 77.4168Z" fill="#263238"/>
<path d="M47.9214 79.0756C47.916 79.2129 47.8705 79.3455 47.7904 79.4571C47.7103 79.5686 47.5993 79.6542 47.471 79.703C47.3428 79.7519 47.203 79.7619 47.0692 79.7318C46.9353 79.7018 46.8132 79.633 46.718 79.534C46.6229 79.4351 46.5589 79.3102 46.534 79.1752C46.5092 79.0401 46.5245 78.9006 46.5782 78.7742C46.6319 78.6478 46.7215 78.5399 46.8359 78.4641C46.9503 78.3882 47.0845 78.3478 47.2217 78.3477C47.3155 78.3491 47.408 78.3691 47.4941 78.4065C47.5801 78.4439 47.6579 78.498 47.723 78.5657C47.788 78.6334 47.839 78.7133 47.8731 78.8008C47.9072 78.8883 47.9236 78.9817 47.9214 79.0756Z" fill="#263238"/>
<path d="M44.9812 79.1953L44.3252 83.3714L46.6321 83.0977L44.9812 79.1953Z" fill="#F28F8F"/>
<path d="M33.113 90.1973C33.113 90.1973 38.4157 92.5562 38.9842 100.711C40.1814 117.766 27.3566 121.69 27.3566 121.69C26.2633 119.539 27.1434 116.633 28.04 114.575C30.1214 113.216 31.8074 111.33 32.9276 109.109C34.0478 106.888 34.5625 104.41 34.4196 101.926C34.1244 95.7088 31.0412 92.2278 29.4996 91.7571C30.5938 91.0114 31.8203 90.4819 33.113 90.1973Z" fill="#37474F"/>
<path d="M23.1473 122.178C25.4433 121.373 26.0173 121.083 28.9092 118.746C31.8011 116.409 34.2501 113.306 36.5625 110.23C36.8416 109.87 37.1506 109.535 37.4864 109.228C38.0801 108.705 38.6054 108.109 39.0499 107.455C40.0612 105.917 40.0776 104.915 40.176 103.076C40.253 101.221 39.9956 99.3667 39.4161 97.6028C39.3685 97.4048 39.2811 97.2186 39.1592 97.0555C39.0951 96.9755 39.0099 96.9151 38.9133 96.8813C38.8166 96.8474 38.7124 96.8414 38.6125 96.8639C38.4507 96.9344 38.3176 97.0579 38.2353 97.2142C37.5903 98.1994 37.142 99.2995 36.5024 100.301C36.2127 100.755 36.0104 100.936 35.748 101.396C35.7152 101.451 35.2013 101.976 35.1029 101.746C35.0045 101.516 35.3216 100.799 35.2068 99.6389C35.092 98.4785 34.7749 98.0626 34.4196 97.9695C33.8729 97.8272 33.8729 98.4402 33.6269 99.3652C33.3481 100.46 32.9217 101.368 32.9709 102.994C32.9942 104.108 32.8316 105.218 32.4899 106.278C32.1783 107.531 30.7515 110.355 27.22 112.534C26.4492 113.01 26.2032 113.081 26.6733 111.237C27.4468 107.757 28.5563 104.36 29.9861 101.095C31.3965 97.8819 32.3696 95.4244 31.0795 94.1163C28.8217 91.8723 25.6565 93.1531 23.8908 96.9734C21.8517 101.385 20.7365 104.734 19.9165 112.846C19.5339 116.371 19.1949 123.562 23.1473 122.178Z" fill="#FFA8A7"/>
<path d="M29.7398 91.8447C27.0721 91.9651 25.2954 93.0434 23.5297 96.5298C21.7639 100.016 20.4082 106.141 20.4082 106.141C20.4082 106.141 22.9174 108.817 27.7882 108.68C27.7882 108.68 30.8495 100.646 31.4345 98.4838C32.0741 96.1248 31.5165 92.6548 29.7398 91.8447Z" fill="#6256BF"/>
<path d="M134.881 48.7796L130.783 47.6709L126.681 53.5886L127.764 52.9524V56.4281L130.147 55.0341V53.0927L131.414 52.3489V54.2903L133.797 52.8962V49.4158L134.881 48.7796Z" fill="url(#paint10_linear_103_6014)"/>
<path d="M106.18 58.8196C105.426 58.3465 104.814 58.7311 104.814 59.6772C104.839 60.1919 104.977 60.6927 105.214 61.139C105.452 61.5854 105.783 61.9646 106.18 62.2461C106.934 62.7191 107.547 62.3345 107.547 61.3885C107.521 60.8738 107.384 60.3729 107.146 59.9266C106.909 59.4803 106.578 59.101 106.18 58.8196Z" fill="url(#paint11_linear_103_6014)"/>
<path d="M109.188 67.7343C108.378 68.0699 107.334 67.9619 106.181 67.3487C104.951 66.6208 103.92 65.6241 103.174 64.441V64.1904C103.174 62.6478 104.323 62 105.74 62.7789L106.626 63.2649C107.373 63.7297 107.995 64.3562 108.44 65.0933C108.885 65.8305 109.141 66.6575 109.188 67.5068V67.7343Z" fill="url(#paint12_linear_103_6014)"/>
</g>
</svg>
