<svg width="34" height="34" viewBox="0 0 34 34" fill="none" xmlns="http://www.w3.org/2000/svg">
<defs>
<filter id="filter0_d_734_2625" x="0.811401" y="0.811035" width="32.3634" height="32.3672" filterUnits="userSpaceOnUse" color-interpolation-filters="sRGB">
<feFlood flood-opacity="0" result="BackgroundImageFix"/>
<feColorMatrix in="SourceAlpha" type="matrix" values="0 0 0 0 0 0 0 0 0 0 0 0 0 0 0 0 0 0 127 0" result="hardAlpha"/>
<feOffset/>
<feGaussianBlur stdDeviation="2"/>
<feComposite in2="hardAlpha" operator="out"/>
<feColorMatrix type="matrix" values="0 0 0 0 0 0 0 0 0 0 0 0 0 0 0 0 0 0 1 0"/>
<feBlend mode="normal" in2="BackgroundImageFix" result="effect1_dropShadow_734_2625"/>
<feBlend mode="normal" in="SourceGraphic" in2="effect1_dropShadow_734_2625" result="shape"/>
</filter>
</defs>
<g filter="url(#filter0_d_734_2625)">
<path d="M28.8004 15.4559C28.9531 15.4604 29.0731 15.327 29.0502 15.1761C28.5682 11.9943 26.8346 9.00788 23.9904 7.01634C23.2358 6.488 22.4422 6.05705 21.6244 5.72087C21.4576 5.65228 21.2793 5.78296 21.2879 5.96315C21.4175 8.67426 21.3393 11.4005 21.0486 14.1163C21.0354 14.2394 21.1138 14.3541 21.2337 14.385C23.7266 15.0277 26.2649 15.3818 28.8004 15.4559Z" fill="white"/>
<path d="M8.84427 8.32945C8.72309 8.23643 8.71448 8.05705 8.82774 7.95453C11.6533 5.39703 15.4992 4.34303 19.1679 5.00364C19.2792 5.0237 19.3619 5.11767 19.3691 5.23061C19.5445 7.97285 19.4993 10.7336 19.2286 13.4847C19.213 13.643 19.0549 13.7457 18.904 13.6952C15.8387 12.6676 12.8675 11.1877 10.0839 9.23857C9.66201 8.94313 9.24877 8.63998 8.84427 8.32945Z" fill="white"/>
<path d="M5.17129 18.2027C5.02036 18.2468 4.86505 18.1446 4.85222 17.9879C4.6284 15.255 5.32082 12.431 7.0165 10.0093C7.07803 9.92142 7.14051 9.8346 7.20392 9.74885C7.28656 9.63708 7.4451 9.61764 7.55493 9.70284C8.02811 10.0699 8.51266 10.4273 9.00848 10.7745C12.0795 12.9249 15.3683 14.5339 18.7611 15.6215C18.8777 15.6589 18.9508 15.7747 18.933 15.8958C18.8084 16.7435 18.6622 17.5893 18.4941 18.4327C18.464 18.5838 18.3049 18.6709 18.1601 18.6181C13.9295 17.0738 9.37097 16.9761 5.17129 18.2027Z" fill="white"/>
<path d="M15.2064 28.8704C15.161 28.9739 15.0516 29.0339 14.9403 29.0149C13.2193 28.7211 11.5346 28.0511 10.0094 26.9832C7.63369 25.3196 6.03283 22.962 5.28901 20.3761C5.25217 20.2481 5.32511 20.1147 5.45252 20.0757C9.4425 18.8517 13.8025 18.9488 17.8168 20.4919C17.9332 20.5367 17.9976 20.6614 17.9674 20.7824C17.2839 23.524 16.3653 26.2298 15.2064 28.8704Z" fill="white"/>
<path d="M25.2465 25.6515C25.3347 25.7513 25.3273 25.903 25.2291 25.993C23.0753 27.9676 20.318 29.0609 17.4955 29.1778C17.3152 29.1853 17.1922 29.0013 17.262 28.8349C18.2467 26.4877 19.0503 24.0936 19.6762 21.6714C19.7166 21.5152 19.8918 21.4364 20.0337 21.5133C20.6704 21.858 21.294 22.2428 21.9014 22.668C23.158 23.5479 24.2745 24.5519 25.2465 25.6515Z" fill="white"/>
<path d="M28.9316 17.3351C29.0706 17.3384 29.1812 17.4537 29.1746 17.5926C29.0685 19.8143 28.3534 22.0336 26.9833 23.9902C26.9383 24.0546 26.8927 24.1184 26.8466 24.1816C26.7539 24.3088 26.5679 24.315 26.4621 24.1985C25.4384 23.0719 24.275 22.0411 22.9769 21.1321C22.1328 20.5411 21.2601 20.0214 20.366 19.5717C20.2637 19.5202 20.2083 19.4064 20.2318 19.2943C20.4276 18.359 20.5974 17.4204 20.7414 16.4797C20.7638 16.333 20.9079 16.2373 21.052 16.2732C23.65 16.9203 26.2929 17.2714 28.9316 17.3351Z" fill="white"/>
</g>
</svg>
