<svg width="15" height="12" viewBox="0 0 15 12" fill="none" xmlns="http://www.w3.org/2000/svg">
<path d="M9.68764 6.12546C9.68764 5.75236 10.1074 5.44991 10.6251 5.44991C11.1429 5.44991 11.5626 5.75236 11.5626 6.12546C11.5626 6.49856 11.1429 6.80101 10.6251 6.80101C10.1074 6.80101 9.68764 6.49856 9.68764 6.12546Z" fill="white"/>
<path fill-rule="evenodd" clip-rule="evenodd" d="M12.776 3.72681C12.3649 3.0307 11.4565 2.53028 10.3756 2.44831L9.96815 2.41742C7.91045 2.26139 5.83499 2.27168 3.78046 2.4481L3.5105 2.47128C2.4675 2.56084 1.64109 3.14803 1.50217 3.89827C1.22844 5.37652 1.22844 6.87442 1.50217 8.35266C1.64109 9.1029 2.4675 9.6901 3.5105 9.77966L3.78046 9.80284C5.83499 9.97926 7.91045 9.98955 9.96815 9.83351L10.3756 9.80262C11.4565 9.72065 12.3649 9.22024 12.776 8.52412C13.4255 8.38477 13.9213 7.979 14.0026 7.47764C14.1484 6.57925 14.1484 5.67168 14.0026 4.7733C13.9213 4.27194 13.4255 3.86617 12.776 3.72681ZM9.87004 3.08926C7.88186 2.9385 5.87651 2.94844 3.89139 3.1189L3.62143 3.14208C3.00342 3.19515 2.51375 3.54308 2.43144 3.98762C2.16869 5.40656 2.16869 6.84437 2.43144 8.26332C2.51375 8.70785 3.00342 9.05578 3.62143 9.10885L3.89139 9.13203C5.87651 9.30249 7.88185 9.31243 9.87004 9.16167L10.2775 9.13078C10.809 9.09047 11.2794 8.90165 11.6053 8.62138C10.6628 8.66099 9.70762 8.64329 8.77624 8.56828C7.98289 8.50438 7.34127 8.05422 7.24768 7.47764C7.10187 6.57925 7.10187 5.67168 7.24768 4.7733C7.34127 4.19671 7.98289 3.74655 8.77624 3.68265C9.70762 3.60764 10.6628 3.58994 11.6053 3.62955C11.2794 3.34928 10.809 3.16047 10.2775 3.12016L9.87004 3.08926ZM12.0485 4.33062C12.0489 4.33234 12.0493 4.33407 12.0496 4.3358L12.0534 4.35332L12.1776 4.33942C12.2418 4.344 12.3059 4.34887 12.3699 4.35403C12.7371 4.38359 13.0294 4.59263 13.0715 4.85177C13.2088 5.69802 13.2088 6.55292 13.0715 7.39916C13.0294 7.65831 12.7371 7.86734 12.3699 7.89691C12.3059 7.90206 12.2418 7.90693 12.1776 7.91151L12.0534 7.89762L12.0496 7.91513C12.0493 7.91686 12.0489 7.91859 12.0485 7.92032C10.9994 7.98871 9.92339 7.98091 8.88037 7.89691C8.51324 7.86734 8.2209 7.65831 8.17884 7.39916C8.04148 6.55292 8.04148 5.69802 8.17884 4.85177C8.2209 4.59263 8.51324 4.38359 8.88037 4.35403C9.92339 4.27002 10.9994 4.26222 12.0485 4.33062Z" fill="white"/>
</svg>
